<?xml version="1.0" standalone="no"?>
<!DOCTYPE svg PUBLIC "-//W3C//DTD SVG 20010904//EN"
 "http://www.w3.org/TR/2001/REC-SVG-20010904/DTD/svg10.dtd">
<svg version="1.0" xmlns="http://www.w3.org/2000/svg"
 width="400.000000pt" height="400.000000pt" viewBox="0 0 400.000000 400.000000"
 preserveAspectRatio="xMidYMid meet">

<g transform="translate(0.000000,400.000000) scale(0.100000,-0.100000)"
fill="#000000" stroke="none">
<path d="M1651 3685 c-16 -5 -33 -13 -37 -17 -4 -5 -20 -8 -35 -8 -15 0 -29
-5 -31 -12 -2 -6 -19 -11 -36 -10 -21 0 -30 -3 -26 -10 5 -7 2 -8 -5 -3 -17
10 -60 -13 -91 -49 -53 -62 -62 -77 -48 -74 8 2 13 -7 14 -22 1 -35 -11 -55
-33 -55 -11 0 -19 -8 -21 -21 -3 -19 -21 -42 -87 -104 -15 -14 -33 -37 -40
-51 -8 -15 -21 -29 -30 -32 -8 -4 -15 -13 -15 -22 0 -8 -4 -15 -10 -15 -5 0
-12 -11 -16 -25 -3 -14 -12 -25 -20 -25 -8 0 -14 -9 -14 -20 0 -11 -4 -20 -10
-20 -5 0 -10 -12 -10 -26 0 -14 -4 -23 -9 -20 -10 6 -91 -166 -91 -194 0 -10
-3 -20 -7 -22 -12 -5 -86 -165 -88 -188 -3 -41 13 -28 40 33 15 34 29 57 32
50 2 -7 -3 -27 -12 -46 -9 -19 -17 -45 -18 -58 -1 -13 -10 -32 -20 -42 -10
-10 -15 -22 -12 -26 2 -5 -2 -11 -10 -15 -8 -3 -15 -1 -15 4 0 5 -7 7 -15 4
-11 -5 -13 -10 -5 -19 11 -13 -6 -75 -33 -117 -16 -23 -47 -121 -47 -145 0 -7
7 -10 18 -6 14 5 14 3 -3 -10 -16 -13 -18 -18 -7 -41 6 -14 8 -26 3 -26 -5 0
-12 -7 -15 -16 -3 -8 -2 -12 4 -9 6 3 7 -1 4 -9 -3 -9 -10 -13 -15 -10 -5 3
-9 1 -9 -5 0 -5 4 -11 10 -13 5 -2 3 -16 -5 -33 -7 -16 -18 -63 -23 -103 -11
-75 -31 -112 -61 -112 -12 0 -12 -3 -3 -12 18 -18 16 -98 -3 -98 -18 0 -20
-16 -2 -23 8 -4 8 -8 2 -14 -11 -9 -12 -78 -2 -103 9 -23 27 -93 27 -108 0 -7
-4 -11 -8 -8 -5 3 -9 -1 -9 -8 0 -8 9 -11 23 -8 13 2 30 -4 42 -16 18 -18 26
-19 54 -12 41 12 68 4 68 -20 0 -10 5 -22 10 -25 17 -11 11 -43 -10 -50 -29
-9 -36 -49 -13 -79 10 -14 23 -26 29 -26 6 0 19 -9 29 -20 10 -12 25 -18 32
-16 7 3 15 0 19 -5 3 -6 19 -18 35 -28 l28 -17 -39 -39 c-38 -37 -40 -37 -63
-22 -29 19 -42 60 -27 87 8 16 8 20 -4 20 -9 0 -13 -6 -10 -14 3 -8 1 -17 -5
-21 -6 -3 -11 -16 -11 -28 0 -18 -2 -19 -10 -7 -5 8 -10 11 -10 6 0 -4 11 -22
25 -38 14 -16 23 -33 20 -38 -3 -4 9 -13 25 -20 33 -14 36 -26 15 -54 -10 -13
-11 -24 -5 -37 9 -15 6 -17 -23 -13 -78 11 -152 12 -169 3 -18 -10 -16 -29 3
-29 6 0 8 4 5 9 -4 5 8 7 26 4 40 -6 53 -16 18 -13 -39 3 -46 1 -30 -11 12 -8
10 -9 -9 -4 -17 5 -22 4 -16 -5 5 -9 4 -11 -4 -6 -6 4 -9 11 -6 16 3 5 0 12
-5 15 -20 13 -60 -5 -98 -44 -20 -21 -44 -40 -52 -44 -9 -3 -10 -6 -2 -6 18
-1 15 -25 -7 -45 -14 -13 -24 -14 -45 -7 -17 7 -26 7 -26 1 0 -6 -7 -10 -15
-10 -8 0 -15 -4 -15 -10 0 -5 -7 -10 -15 -10 -8 0 -15 -5 -15 -11 0 -5 -4 -7
-10 -4 -5 3 -10 -1 -10 -10 0 -9 -4 -13 -10 -10 -5 3 -10 -1 -10 -10 0 -9 4
-14 9 -10 5 3 12 -3 14 -12 3 -11 5 -8 6 10 1 29 16 38 17 10 1 -10 4 -31 8
-48 3 -16 8 -40 10 -53 3 -15 0 -22 -10 -22 -8 0 -13 4 -9 9 3 5 1 12 -5 16
-5 3 -10 -3 -10 -14 0 -17 6 -21 35 -21 28 0 35 -4 35 -19 0 -10 2 -34 5 -52
5 -33 4 -33 -6 4 -6 20 -15 37 -20 37 -4 0 -7 -6 -5 -13 3 -6 7 -24 10 -39 4
-16 12 -28 20 -28 8 0 17 -21 23 -55 5 -30 6 -55 2 -55 -4 0 -10 23 -14 50 -4
28 -11 50 -17 50 -5 0 -7 -4 -3 -9 3 -5 -5 -12 -17 -14 l-23 -4 23 -2 c12 0
22 -7 23 -13 1 -7 2 -30 4 -51 2 -20 -1 -37 -6 -37 -5 0 -9 20 -9 45 0 45 -19
66 -21 23 0 -18 -3 -15 -13 12 -8 19 -11 38 -9 43 2 4 -3 7 -11 7 -13 0 -13
-5 -1 -41 19 -52 19 -59 0 -33 -8 12 -17 33 -20 48 -3 14 -8 38 -11 54 -3 15
-6 35 -7 44 -1 9 -4 15 -8 12 -4 -2 -10 3 -13 12 -4 9 -9 14 -13 11 -3 -4 0
-13 7 -22 7 -8 8 -15 3 -15 -6 0 -18 18 -28 40 -10 23 -23 43 -28 47 -5 3 -1
-9 7 -26 9 -17 16 -33 15 -36 -1 -3 5 -20 12 -37 12 -30 13 -30 21 -8 11 31
15 25 23 -44 3 -33 15 -77 25 -98 10 -21 15 -38 11 -38 -14 0 -41 59 -42 92
-1 31 -1 32 -10 8 -7 -20 -8 -17 -4 15 2 22 2 34 -1 27 -7 -15 -74 121 -74
149 0 13 -5 17 -16 12 -29 -11 -32 -44 -7 -87 13 -23 32 -71 44 -109 11 -37
24 -65 29 -62 5 3 5 17 0 33 -19 58 -41 116 -61 154 -11 22 -18 42 -15 45 7 7
74 -143 82 -183 4 -20 11 -31 17 -27 5 3 7 1 3 -5 -3 -6 0 -17 8 -24 17 -18
32 -63 18 -54 -23 14 -21 -14 3 -32 13 -11 21 -22 18 -26 -12 -12 -19 -6 -42
34 -17 31 -19 38 -7 34 9 -3 16 -1 16 5 0 6 -5 11 -11 11 -5 0 -7 4 -4 10 3 5
1 10 -4 10 -20 0 -26 -5 -23 -18 2 -6 -2 -12 -8 -12 -6 0 -8 5 -5 10 3 6 2 10
-3 10 -5 0 -9 6 -9 13 -2 41 -72 217 -87 217 -10 0 2 -35 28 -84 14 -26 23
-52 20 -57 -3 -5 0 -9 7 -9 7 0 10 -3 6 -6 -3 -3 -2 -17 3 -30 9 -22 7 -24
-23 -24 l-33 0 21 -66 c11 -36 21 -58 23 -49 2 8 -3 36 -12 60 -8 25 -11 45
-6 45 5 0 16 -32 25 -72 18 -81 50 -162 71 -179 8 -6 12 -15 9 -19 -3 -5 -1
-11 4 -15 6 -3 8 -12 4 -20 -6 -18 -3 -18 31 -5 16 6 26 6 26 0 0 -5 -18 -15
-40 -21 -22 -7 -40 -16 -40 -20 0 -14 65 -4 72 11 5 12 7 12 7 -3 1 -15 9 -18
54 -15 l52 3 3 82 c2 46 -1 83 -5 83 -5 0 -10 -23 -10 -51 -1 -28 -4 -54 -7
-57 -3 -3 -6 47 -6 111 0 68 4 117 10 117 5 0 7 -16 5 -35 -4 -26 -1 -35 10
-35 9 0 12 6 9 15 -4 8 -1 15 4 15 7 0 10 -40 7 -120 -2 -71 0 -120 6 -120 8
0 12 42 11 113 0 15 4 27 9 27 6 0 9 -28 7 -67 -2 -60 0 -68 15 -65 9 2 17 -1
17 -5 0 -5 28 -8 63 -8 l62 1 6 45 6 44 1 -48 c2 -58 22 -55 22 4 0 21 4 39 9
39 5 0 6 -20 3 -45 -3 -30 -1 -45 7 -45 6 0 11 14 11 31 0 16 4 28 9 25 4 -3
6 -17 3 -31 -2 -15 0 -25 7 -25 6 0 11 5 11 10 0 6 5 10 11 10 5 0 7 -4 4 -10
-3 -5 -2 -10 4 -10 5 0 12 6 14 13 4 9 8 8 16 -3 6 -8 11 -11 12 -5 1 6 3 25
5 44 6 52 14 50 14 -2 l0 -47 120 0 120 0 1 53 c1 38 3 46 8 27 4 -14 6 -37 4
-53 -4 -35 14 -35 20 1 l4 27 2 -27 c1 -23 5 -27 26 -26 16 2 24 7 21 15 -3 7
-1 13 4 13 6 0 10 -7 10 -15 0 -8 5 -15 11 -15 6 0 8 9 4 20 -4 11 -2 20 4 20
6 0 11 -9 11 -20 0 -11 5 -20 11 -20 7 0 9 10 5 25 -4 14 -2 25 4 25 5 0 10
-11 10 -25 0 -14 5 -25 10 -25 12 0 12 7 -4 98 -7 40 -9 75 -5 78 5 3 9 -3 10
-13 0 -10 2 -25 3 -33 2 -8 6 -41 10 -72 7 -54 9 -58 33 -58 18 0 24 4 20 15
-4 8 -2 17 3 20 6 4 10 -3 10 -14 0 -12 5 -21 10 -21 10 0 5 74 -6 92 -2 3 0
9 6 13 5 3 10 -2 11 -12 2 -40 11 -79 21 -88 7 -7 9 -2 4 18 -4 16 -2 27 4 27
5 0 10 -9 10 -19 0 -11 5 -23 11 -27 8 -5 10 1 7 20 -3 14 -1 26 3 26 5 0 9
-11 9 -25 0 -14 4 -25 9 -25 9 0 7 38 -4 68 -2 6 0 12 4 12 5 0 12 -18 16 -40
4 -22 10 -40 15 -40 4 0 4 18 0 40 -4 22 -3 40 1 40 5 0 9 -12 9 -27 0 -16 5
-35 11 -43 8 -12 10 -9 6 13 -2 15 0 27 4 27 8 0 13 -23 10 -42 0 -5 4 -8 10
-8 7 0 9 10 7 25 -3 14 -1 25 3 25 8 0 13 -23 10 -42 0 -5 4 -8 10 -8 8 0 9
11 5 31 -3 17 -6 40 -6 50 0 11 -5 19 -11 19 -6 0 -9 -7 -6 -15 4 -8 2 -17 -3
-20 -6 -4 -10 3 -10 14 0 12 -5 21 -11 21 -6 0 -9 -7 -6 -15 4 -8 2 -17 -2
-20 -5 -2 -11 6 -13 20 -4 18 -1 25 10 25 11 0 13 10 8 48 -4 32 -3 41 3 27 5
-11 10 -32 10 -47 1 -33 21 -38 22 -5 0 22 0 22 9 1 4 -11 11 -46 15 -77 8
-59 20 -74 28 -34 l4 22 2 -22 c0 -13 6 -23 11 -23 6 0 10 10 11 23 l0 22 9
-22 c13 -32 22 -29 16 4 -2 16 -7 48 -10 73 -5 39 -5 41 4 15 6 -16 13 -46 16
-65 3 -19 10 -39 16 -45 7 -7 9 -1 6 17 -3 16 -1 28 3 28 8 0 13 -23 10 -43 0
-4 17 -7 40 -7 32 0 40 3 35 15 -3 8 -1 15 4 15 6 0 10 -6 10 -13 0 -9 15 -14
44 -15 35 -2 46 2 49 15 4 17 5 17 6 1 2 -27 76 -25 93 2 7 11 17 20 22 20 6
0 5 -5 -2 -12 -7 -7 -12 -16 -12 -20 0 -13 45 -9 59 4 8 7 11 8 8 2 -5 -8 14
-12 58 -13 46 -1 65 2 65 11 0 9 3 8 10 -2 8 -13 11 -12 24 5 13 17 13 22 2
30 -12 9 -12 14 0 30 8 11 19 21 24 21 6 1 15 2 20 3 6 0 10 5 10 11 0 5 -8 7
-17 4 -15 -5 -15 -3 2 10 18 15 20 15 27 -1 5 -14 7 -12 7 9 1 25 -1 27 -25
18 -36 -14 -43 -12 -14 5 36 21 50 18 50 -9 0 -30 9 -56 20 -56 5 0 5 14 0 30
-5 17 -5 30 0 30 8 0 20 -35 20 -63 0 -10 -4 -15 -10 -12 -5 3 -10 1 -10 -5 0
-7 7 -9 16 -6 9 3 17 6 20 6 2 0 1 14 -2 30 -5 20 -3 30 6 30 7 0 10 7 7 15
-4 8 -2 17 3 20 6 4 10 0 10 -7 1 -7 7 -26 15 -43 l14 -30 -5 34 c-3 19 -7 37
-9 41 -9 15 -30 137 -22 130 3 -3 8 -19 11 -35 8 -44 36 -148 41 -154 14 -13
12 12 -6 74 -11 39 -18 77 -16 85 2 8 9 -10 15 -40 14 -64 38 -107 27 -50 -18
98 -26 122 -41 116 -8 -3 -14 1 -14 10 0 10 -6 14 -15 10 -8 -3 -15 -1 -15 3
0 5 7 12 16 15 22 9 24 8 24 -9 0 -8 4 -15 9 -15 6 0 6 12 1 30 -5 17 -5 30
-1 30 5 0 12 -19 16 -42 5 -24 9 -45 10 -48 1 -3 7 -31 14 -62 7 -32 17 -58
22 -58 6 0 8 8 5 18 -3 9 -8 31 -11 47 -5 30 -5 30 8 -3 20 -52 25 -29 9 38
-10 41 -19 59 -28 56 -6 -2 -14 4 -17 15 -6 21 8 26 17 7 3 -7 4 7 2 32 l-5
45 15 -45 c8 -25 17 -58 20 -75 5 -31 11 -41 19 -34 2 3 -2 29 -10 59 -14 53
-20 100 -8 73 9 -23 20 -13 17 15 -2 17 0 14 7 -11 6 -20 16 -37 21 -37 6 0 7
8 3 18 -3 9 -8 31 -11 47 l-4 30 15 -30 15 -30 -5 45 c-5 33 -3 41 4 30 9 -12
11 -10 12 10 1 17 3 19 6 8 8 -32 23 -19 17 15 l-5 32 15 -30 c9 -19 15 -24
15 -13 1 9 10 20 21 23 11 3 20 10 20 15 0 5 -7 7 -15 4 -11 -5 -15 0 -14 17
1 15 3 18 6 8 3 -11 12 -15 28 -11 19 3 25 10 24 31 l-1 26 -8 -25 c-8 -24 -8
-24 -9 -3 -1 23 31 48 44 35 4 -4 4 11 0 33 -12 66 -81 166 -133 194 -12 7
-20 17 -16 23 4 7 3 8 -4 4 -7 -4 -12 -2 -12 4 0 6 -4 8 -10 5 -6 -4 -10 7
-10 24 0 21 -5 31 -15 31 -14 0 -21 34 -16 80 1 10 -1 11 -6 3 -5 -6 -7 -32
-5 -58 3 -35 8 -45 18 -41 9 4 14 -2 14 -17 0 -16 -3 -18 -9 -8 -5 7 -14 10
-20 7 -7 -5 -11 2 -11 17 0 16 -7 26 -20 30 -11 3 -18 2 -16 -2 3 -4 1 -13 -5
-21 -7 -12 -9 -11 -8 5 1 11 4 31 8 45 7 25 7 25 13 2 3 -12 12 -22 20 -21 10
0 10 2 1 6 -7 2 -13 9 -13 14 0 6 3 8 8 6 4 -3 8 23 10 56 3 67 -3 75 -11 14
-3 -21 -8 -41 -12 -45 -4 -4 -4 18 0 48 4 30 13 60 21 66 8 6 14 22 15 35 0
22 1 23 9 4 l9 -20 1 20 c2 11 2 23 1 28 0 4 3 7 8 7 10 0 20 -36 23 -86 2
-25 6 -30 20 -26 15 3 18 -2 20 -29 1 -31 2 -29 8 11 l7 45 2 -40 c3 -36 4
-37 11 -15 5 14 8 18 9 9 1 -9 8 -22 16 -29 9 -7 13 -15 11 -18 -3 -2 2 -11
10 -19 8 -8 11 -20 7 -26 -5 -9 -3 -9 8 0 12 10 15 8 15 -7 0 -10 -4 -16 -8
-14 -11 7 1 -69 12 -80 13 -13 13 0 -1 27 l-10 22 18 -22 c15 -18 20 -19 30
-8 7 8 9 16 4 20 -5 3 -11 1 -13 -5 -2 -6 -9 0 -17 12 -13 21 -13 22 2 9 12
-9 17 -10 17 -2 0 7 5 9 12 5 7 -4 8 -3 4 5 -4 6 -11 9 -16 6 -5 -3 -12 0 -16
7 -4 7 -4 10 1 6 4 -4 14 0 20 9 11 15 15 16 31 3 11 -9 6 2 -10 25 -18 24
-22 33 -10 22 29 -24 41 -21 18 5 l-19 21 30 -18 30 -19 -24 27 c-13 14 -26
25 -30 24 -7 -2 -11 7 -11 24 0 5 5 7 10 4 9 -6 14 8 11 28 -1 5 3 6 8 2 6 -3
8 -13 5 -23 -3 -9 1 -6 9 8 9 14 13 29 10 33 -3 5 5 3 18 -4 22 -11 23 -11 10
4 -11 14 -11 20 0 33 11 14 11 18 -3 28 -17 13 -50 110 -41 120 4 3 23 6 44 6
21 0 41 5 45 12 5 7 2 9 -7 4 -8 -4 -6 -1 4 7 9 8 17 21 17 30 0 8 4 17 10 19
5 2 12 17 16 33 4 24 0 36 -20 58 -14 15 -28 27 -32 26 -3 0 -7 1 -10 3 -2 3
27 18 64 36 70 32 107 69 117 118 l6 29 -30 -34 c-16 -19 -42 -42 -58 -52 -30
-20 -78 -25 -88 -10 -8 14 21 39 55 46 44 10 46 25 3 19 l-38 -5 40 19 c42 20
101 70 92 78 -2 3 -20 -4 -39 -16 -29 -17 -35 -18 -35 -5 0 10 6 14 15 10 12
-4 12 -2 3 8 -8 11 -8 22 3 48 15 35 11 103 -5 78 -6 -10 -11 -7 -18 11 -6 15
-10 18 -10 9 -1 -9 -9 -23 -19 -33 -18 -15 -20 -15 -35 2 -22 24 -21 32 3 32
11 0 20 7 20 16 0 8 4 13 9 10 12 -8 21 18 21 60 0 20 5 34 13 34 8 0 7 4 -3
11 -11 8 -12 12 -2 16 23 9 7 110 -35 221 -5 10 -2 13 6 8 9 -6 8 2 -3 22 -9
17 -19 56 -22 87 -4 31 -10 52 -13 46 -4 -6 -12 10 -19 35 -7 25 -10 50 -7 55
4 5 1 9 -5 9 -11 0 -10 45 4 225 5 64 4 66 -3 16 -8 -48 -31 -95 -31 -62 0 7
-4 10 -8 7 -5 -3 -16 21 -25 54 -19 68 -22 93 -7 70 5 -8 10 -10 10 -5 -1 14
-47 65 -59 65 -6 0 -15 9 -21 20 -6 11 -15 20 -21 20 -6 0 -8 -4 -5 -8 3 -5
-1 -9 -9 -9 -13 0 -13 2 -1 16 13 14 11 16 -17 19 -18 1 -50 4 -72 6 -22 2
-56 4 -76 5 -30 1 -38 5 -43 26 -4 16 -13 25 -26 25 -10 0 -22 5 -25 11 -5 7
12 9 49 8 31 -1 59 0 62 4 4 3 14 2 23 -3 26 -13 111 -21 111 -10 0 6 -20 10
-44 10 -56 0 -68 16 -19 25 27 5 33 9 22 16 -8 5 -10 9 -5 9 5 0 1 9 -10 21
-15 17 -26 20 -57 15 -46 -8 -42 8 5 18 l33 7 -24 19 c-13 11 -35 20 -50 21
l-26 0 25 10 c13 6 26 12 28 14 6 6 -38 75 -48 75 -5 0 -16 15 -25 34 -20 43
-122 137 -140 130 -7 -3 -16 -1 -20 5 -3 6 -1 11 5 11 6 0 8 5 5 10 -9 14 -25
12 -23 -2 2 -7 -3 -12 -10 -10 -15 3 -95 52 -102 62 -3 4 -29 22 -58 40 -28
17 -50 36 -46 41 3 5 7 9 10 9 3 0 3 -4 0 -9 -3 -5 0 -11 8 -14 10 -4 12 0 9
13 -3 11 -21 24 -42 31 -20 7 -46 19 -58 27 -13 8 -23 10 -23 5 0 -5 -20 -10
-45 -12 -39 -2 -44 0 -38 16 4 10 11 21 17 25 22 15 -200 18 -243 3z m205 -27
c3 -4 -19 -8 -48 -8 -38 0 -49 3 -38 10 17 11 79 10 86 -2z m-386 -73 c-7 -8
-20 -15 -28 -15 -13 0 -12 3 4 15 25 19 40 19 24 0z m352 7 c47 14 121 0 210
-41 68 -31 104 -61 57 -47 -13 4 -28 8 -34 10 -10 3 -77 12 -143 21 -19 2 -30
0 -27 -6 4 -5 0 -9 -7 -9 -7 0 -23 -3 -35 -6 -29 -8 -30 12 -2 21 16 5 18 9 9
15 -7 4 -9 13 -5 20 4 7 -5 6 -23 -4 -19 -10 -32 -12 -34 -5 -2 5 -13 1 -26
-11 -12 -11 -22 -17 -22 -12 0 5 7 15 15 22 8 6 14 15 13 18 -2 18 3 26 10 15
6 -10 16 -10 44 -1z m-406 -73 c-14 -17 -26 -39 -26 -49 0 -13 -5 -17 -15 -14
-16 7 -6 30 30 70 31 35 40 28 11 -7z m378 23 c2 -4 0 -14 -5 -22 -8 -13 -10
-13 -18 0 -10 15 -6 30 9 30 5 0 11 -4 14 -8z m-215 -43 c-13 -26 -23 -18 -14
10 3 12 11 19 16 16 5 -4 5 -14 -2 -26z m-64 11 c-3 -5 -11 -10 -16 -10 -6 0
-7 5 -4 10 3 6 11 10 16 10 6 0 7 -4 4 -10z m660 -40 c19 -12 24 -20 15 -21
-35 -4 -64 1 -74 12 -8 9 -7 10 6 6 12 -4 15 -2 11 9 -7 19 6 18 42 -6z m-209
-31 c-15 -12 -30 -18 -34 -14 -9 8 26 35 46 35 9 0 4 -8 -12 -21z m-552 -39
c10 -13 9 -13 -6 -1 -21 15 -23 9 -7 -22 10 -21 10 -21 -6 -2 -8 11 -13 26
-10 33 3 8 5 19 6 25 0 7 3 5 6 -3 3 -8 11 -22 17 -30z m812 7 c2 -14 -3 -14
-38 -1 -22 8 -59 15 -82 16 -31 1 -24 3 24 7 70 7 92 2 96 -22z m-177 8 c-10
-10 -22 -13 -34 -9 -18 7 -18 8 1 15 10 4 26 8 34 8 12 1 12 -1 -1 -14z m65
-20 c5 -13 10 -14 27 -4 17 8 20 8 14 -1 -5 -9 -1 -10 15 -5 15 5 20 4 16 -4
-4 -6 0 -11 9 -11 9 0 14 -4 10 -9 -3 -5 4 -12 15 -16 11 -3 20 -11 20 -16 0
-5 21 -9 48 -9 48 0 98 -18 57 -21 -11 -1 -3 -6 19 -11 l38 -11 -33 -28 c-31
-27 -47 -33 -66 -26 -5 1 -7 6 -5 11 2 5 -4 6 -13 2 -17 -6 -49 17 -38 28 4 3
0 6 -8 6 -12 0 -12 2 0 9 17 11 -59 25 -100 19 -28 -4 -70 28 -62 48 3 9 -2
14 -12 14 -10 0 -15 -5 -12 -13 3 -8 -1 -14 -8 -14 -11 0 -11 5 -4 20 6 10 8
21 5 24 -8 8 26 32 45 33 9 0 20 -7 23 -15z m383 -179 c17 -18 17 -18 -6 -6
-24 12 -88 9 -125 -5 -13 -6 -17 -4 -14 5 2 7 14 14 26 15 12 1 24 4 27 6 12
13 76 2 92 -15z m-62 -162 c20 -8 35 -17 33 -20 -5 -4 -98 26 -98 32 0 9 29 3
65 -12z m175 -144 c0 -12 -48 -25 -58 -16 -8 9 18 26 41 26 9 0 17 -4 17 -10z
m-907 -42 c43 -22 48 -25 69 -27 6 0 8 -4 5 -7 -11 -12 74 -65 136 -86 34 -11
70 -25 81 -30 12 -7 16 -6 11 1 -3 7 2 11 14 11 28 0 52 11 45 21 -3 5 4 9 15
9 11 0 24 8 30 17 5 10 13 15 17 11 4 -5 13 -3 21 4 18 14 39 -8 73 -77 14
-27 27 -52 30 -55 3 -3 7 -16 8 -30 2 -14 9 -31 14 -37 6 -7 8 -20 4 -28 -3
-8 -1 -15 4 -15 6 0 10 -6 10 -14 0 -7 6 -26 14 -41 12 -23 12 -30 1 -41 -7
-8 -19 -14 -25 -14 -6 0 -8 -4 -5 -10 3 -5 -3 -10 -14 -10 -10 0 -21 -5 -23
-10 -2 -6 -30 -15 -63 -21 -33 -6 -73 -17 -90 -24 -16 -8 -40 -16 -52 -20 -34
-9 -51 -47 -59 -128 -10 -113 -7 -120 78 -152 63 -25 89 -29 191 -30 73 -1
123 -7 130 -14 6 -6 19 -11 29 -11 9 0 30 -16 45 -35 15 -19 31 -35 35 -35 4
0 20 -12 35 -27 28 -28 28 -29 27 -148 -1 -99 -5 -130 -24 -180 -28 -74 -196
-328 -275 -415 -109 -121 -148 -141 -282 -145 -54 -1 -123 2 -153 7 -30 6 -77
13 -104 17 -34 6 -54 15 -64 29 -8 12 -20 22 -26 22 -6 1 -24 19 -41 40 -16
21 -35 39 -42 40 -12 0 -73 72 -73 87 0 4 -11 20 -24 34 -13 14 -27 36 -30 50
-11 35 -39 89 -48 89 -5 0 -8 7 -8 15 0 9 -15 32 -34 51 -18 19 -36 47 -39 62
-3 15 -9 35 -12 45 -9 21 8 22 29 1 9 -8 22 -14 28 -12 19 7 46 -22 73 -79 14
-28 35 -55 45 -58 11 -4 20 -11 20 -17 0 -5 7 -8 15 -4 8 3 14 0 12 -6 -1 -6
4 -13 11 -15 7 -3 12 4 12 16 0 12 -4 21 -10 21 -5 0 -10 4 -10 10 0 13 37 7
52 -8 7 -7 9 -12 4 -12 -4 0 2 -12 13 -26 12 -15 21 -37 21 -49 0 -13 23 -48
55 -84 30 -34 55 -59 55 -55 0 4 8 0 18 -8 9 -9 32 -19 50 -23 17 -3 32 -11
32 -15 0 -5 16 -12 35 -16 38 -7 127 14 118 29 -7 11 27 36 50 37 13 0 17 6
15 23 -3 21 -6 22 -96 19 -103 -4 -156 9 -174 41 -10 21 -10 21 8 5 24 -21
100 -28 139 -12 17 6 35 10 41 7 14 -5 27 24 18 39 -4 6 -1 8 7 6 8 -3 34 5
59 18 25 13 57 26 72 29 15 3 57 28 94 57 57 43 70 49 85 39 25 -15 59 -14 59
2 0 6 14 30 30 51 17 22 30 47 30 56 0 29 -30 60 -85 85 -29 14 -60 37 -69 50
-9 14 -21 25 -27 25 -5 0 -19 9 -31 20 -26 24 -46 26 -54 5 -13 -33 6 -63 52
-85 25 -13 49 -33 54 -45 5 -13 16 -28 26 -33 12 -7 13 -11 5 -17 -9 -5 -9
-10 -1 -20 20 -24 -21 -52 -96 -64 -142 -22 -317 -29 -394 -14 -44 9 -44 9
-15 16 17 4 62 6 101 5 56 -2 74 1 88 15 10 9 24 17 32 17 8 0 17 7 20 15 4 8
10 12 15 9 12 -7 41 15 34 26 -2 4 4 18 15 30 11 13 18 25 16 28 -10 9 -65
-10 -97 -34 -43 -32 -86 -31 -157 5 -31 15 -72 31 -90 34 -50 10 -77 41 -76
87 1 22 7 47 14 55 24 29 3 26 -31 -4 -140 -122 -193 -161 -232 -172 -23 -7
-46 -16 -51 -20 -4 -4 -21 -3 -36 1 -16 5 -31 6 -34 2 -3 -3 -6 2 -6 12 0 9
-4 14 -10 11 -10 -6 -11 -1 -14 62 -1 17 -7 37 -13 45 -16 21 -9 89 15 137 12
25 22 50 22 56 0 7 10 24 23 38 26 30 68 35 192 23 39 -4 95 -3 126 2 57 9
105 0 94 -18 -3 -6 1 -7 9 -4 12 4 16 0 16 -15 0 -21 0 -21 20 -3 15 14 23 39
29 98 12 110 13 234 2 234 -5 0 -17 7 -25 16 -18 18 -76 37 -76 25 0 -5 -37 2
-82 15 -46 13 -102 24 -126 25 -41 3 -99 38 -74 47 6 2 14 19 18 38 4 20 10
31 17 27 6 -4 8 0 5 8 -3 8 3 25 13 38 11 13 19 19 19 15 0 -5 4 -3 9 5 7 10
5 18 -5 26 -16 11 -9 49 7 39 5 -3 9 8 9 24 0 36 19 92 31 92 5 0 9 9 9 21 0
11 5 17 10 14 6 -3 10 3 10 15 0 29 46 63 108 79 1 1 22 -9 45 -21z m1022
-638 c4 -6 15 -8 26 -5 14 5 19 2 19 -14 0 -28 -10 -51 -23 -51 -6 0 -8 3 -4
6 3 3 -5 18 -19 32 -13 15 -24 30 -24 34 0 12 18 10 25 -2z m182 -82 c-3 -8
-6 -5 -6 6 -1 11 2 17 5 13 3 -3 4 -12 1 -19z m-1427 -78 c0 -5 -9 -10 -20
-10 -11 0 -20 5 -20 10 0 6 9 10 20 10 11 0 20 -4 20 -10z m1440 -21 c0 -20
-15 -26 -25 -9 -9 15 3 43 15 35 5 -3 10 -15 10 -26z m-2220 -270 c0 -33 -3
-40 -17 -37 -22 4 -29 52 -11 72 19 21 28 10 28 -35z m2252 29 c-7 -7 -12 -8
-12 -2 0 14 12 26 19 19 2 -3 -1 -11 -7 -17z m-2203 -77 c-15 -5 -22 6 -14 19
6 9 10 9 16 -1 5 -8 4 -15 -2 -18z m-79 -11 c0 -5 -5 -10 -11 -10 -5 0 -7 5
-4 10 3 6 8 10 11 10 2 0 4 -4 4 -10z m50 -10 c0 -5 -4 -10 -10 -10 -5 0 -10
5 -10 10 0 6 5 10 10 10 6 0 10 -4 10 -10z m-53 -82 c-3 -7 -5 -2 -5 12 0 14
2 19 5 13 2 -7 2 -19 0 -25z m943 -80 c0 -3 -9 -4 -20 -1 -16 4 -18 8 -9 20
10 11 14 11 20 1 5 -7 9 -16 9 -20z m-920 -3 c7 -9 8 -15 2 -15 -5 0 -12 7
-16 15 -3 8 -4 15 -2 15 2 0 9 -7 16 -15z m980 -2 c0 -18 -27 -16 -33 1 -4 10
0 14 14 13 10 -1 19 -7 19 -14z m-899 -58 c-3 -5 -7 -2 -9 7 -3 15 -7 16 -24
7 -30 -16 -37 0 -9 22 24 19 24 19 36 -3 6 -13 9 -27 6 -33z m36 30 c0 -8 -4
-15 -9 -15 -10 0 -11 14 -1 23 9 10 10 9 10 -8z m457 -3 c3 -5 -1 -9 -9 -9 -8
0 -12 4 -9 9 3 4 7 8 9 8 2 0 6 -4 9 -8z m832 -26 c-15 -20 -32 -30 -45 -29
-12 2 -21 -1 -21 -5 0 -5 -25 -21 -55 -36 -43 -21 -59 -24 -75 -16 -15 8 -21
6 -28 -7 -9 -14 -13 -15 -26 -4 -13 11 -17 11 -22 -3 -3 -9 -10 -16 -14 -16
-14 0 -40 31 -35 41 4 5 2 9 -4 9 -5 0 -13 -5 -16 -10 -10 -16 -27 0 -22 20 2
10 1 24 -4 31 -7 11 -11 10 -22 -5 -14 -19 -15 -19 -26 2 -6 11 -11 25 -11 31
0 12 33 15 44 4 10 -10 249 -11 262 -1 7 5 29 11 50 13 21 3 39 7 41 9 2 2 15
4 29 4 l25 0 -25 -32z m474 -131 c0 -19 -2 -35 -5 -35 -9 0 -25 51 -19 61 12
20 24 7 24 -26z m17 -17 c-3 -7 -5 -2 -5 12 0 14 2 19 5 13 2 -7 2 -19 0 -25z
m33 -19 c0 -5 -4 -9 -10 -9 -5 0 -10 7 -10 16 0 8 5 12 10 9 6 -3 10 -10 10
-16z m-1770 -29 c0 -14 -14 -12 -28 2 -19 19 -14 30 8 18 11 -6 20 -15 20 -20z
m1577 -372 c-3 -8 -6 -5 -6 6 -1 11 2 17 5 13 3 -3 4 -12 1 -19z m-1610 6 c-3
-3 -12 -4 -19 -1 -8 3 -5 6 6 6 11 1 17 -2 13 -5z m1660 -26 c-3 -8 -6 -5 -6
6 -1 11 2 17 5 13 3 -3 4 -12 1 -19z m-1659 -83 c3 -3 -4 -4 -16 -2 -12 2 -24
6 -28 10 -4 3 4 4 16 2 12 -2 25 -7 28 -10z m-245 -22 c-7 -2 -19 -2 -25 0 -7
3 -2 5 12 5 14 0 19 -2 13 -5z m354 -55 c-2 -13 -4 -3 -4 22 0 25 2 35 4 23 2
-13 2 -33 0 -45z m-456 15 c-12 -20 -14 -14 -5 12 4 9 9 14 11 11 3 -2 0 -13
-6 -23z m-23 -18 c-1 -19 -3 -33 -5 -31 -7 7 -12 49 -7 57 10 17 13 9 12 -26z
m50 0 c-14 -31 -21 -26 -12 9 3 14 10 23 15 21 4 -3 3 -17 -3 -30z m27 5 c-4
-12 -9 -19 -12 -17 -3 3 -2 15 2 27 4 12 9 19 12 17 3 -3 2 -15 -2 -27z m20
-28 c-16 -52 -29 -71 -21 -29 7 33 28 89 32 84 2 -2 -3 -27 -11 -55z m45 48
c0 -5 -5 -10 -11 -10 -5 0 -7 5 -4 10 3 6 8 10 11 10 2 0 4 -4 4 -10z m39 -52
c-10 -35 -19 -64 -19 -65 0 -2 0 -7 0 -13 0 -5 -4 -10 -9 -10 -5 0 -1 28 10
62 23 76 27 88 33 88 2 0 -4 -28 -15 -62z m94 47 c-3 -9 -8 -14 -10 -11 -3 3
-2 9 2 15 9 16 15 13 8 -4z m-293 -77 c7 -40 14 -76 17 -80 2 -5 0 -8 -5 -8
-8 0 -21 47 -39 143 -1 9 1 17 6 17 5 0 15 -33 21 -72z m175 45 c-4 -16 -8
-35 -10 -43 -6 -28 -24 -65 -24 -52 -1 19 29 122 36 122 3 0 2 -12 -2 -27z
m-47 -67 c-12 -44 -24 -74 -26 -68 -4 12 37 156 43 150 2 -2 -5 -39 -17 -82z
m127 40 c-4 -20 -11 -36 -15 -36 -4 0 -2 18 3 40 13 48 21 46 12 -4z m1532 28
c-3 -3 -12 -4 -19 -1 -8 3 -5 6 6 6 11 1 17 -2 13 -5z m-1563 -38 c-3 -14 -10
-26 -15 -26 -4 0 -3 14 3 31 12 36 22 33 12 -5z m133 -3 c-3 -10 -5 -4 -5 12
0 17 2 24 5 18 2 -7 2 -21 0 -30z m-81 -18 c-6 -19 -14 -35 -18 -35 -3 0 -1
16 5 35 6 19 13 35 17 35 4 0 2 -16 -4 -35z m13 -60 c-10 -44 -24 -95 -30
-114 -10 -30 -15 -99 -18 -228 -1 -18 -6 -33 -12 -33 -6 0 -8 9 -4 21 6 17 4
20 -13 15 -17 -6 -19 -2 -16 36 1 24 3 55 3 71 1 17 6 27 16 27 8 0 15 6 16
13 1 24 9 63 18 87 5 14 17 57 26 95 19 84 24 99 30 94 2 -3 -5 -41 -16 -84z
m224 47 c3 -18 1 -30 -4 -26 -5 3 -9 19 -9 36 0 39 6 34 13 -10z m24 1 c-3
-10 -5 -4 -5 12 0 17 2 24 5 18 2 -7 2 -21 0 -30z m-470 -13 c-6 -22 -13 -38
-15 -36 -6 7 10 76 18 76 4 0 2 -18 -3 -40z m-40 8 c-3 -8 -6 -5 -6 6 -1 11 2
17 5 13 3 -3 4 -12 1 -19z m339 -60 c-19 -73 -24 -103 -25 -140 -1 -16 -5 -28
-11 -28 -10 0 -6 45 11 115 6 22 15 59 21 83 5 24 12 41 15 38 4 -3 -1 -34
-11 -68z m-273 42 c-3 -11 -7 -20 -9 -20 -2 0 -4 9 -4 20 0 11 4 20 9 20 5 0
7 -9 4 -20z m114 -10 c-6 -16 -13 -27 -15 -25 -7 7 8 55 17 55 5 0 4 -13 -2
-30z m48 0 c9 0 12 -6 9 -15 -4 -8 -10 -15 -16 -15 -5 0 -6 5 -3 10 3 6 2 10
-4 10 -5 0 -12 -6 -14 -12 -4 -8 -6 -7 -6 4 -1 9 2 25 6 35 7 17 8 17 11 1 2
-10 10 -18 17 -18z m140 -20 c-4 -23 -9 -39 -11 -37 -3 2 -2 23 2 46 4 23 9
40 11 37 3 -3 2 -23 -2 -46z m-48 8 c-3 -7 -5 -2 -5 12 0 14 2 19 5 13 2 -7 2
-19 0 -25z m430 10 c-3 -8 -6 -5 -6 6 -1 11 2 17 5 13 3 -3 4 -12 1 -19z
m-460 -10 c-3 -8 -6 -5 -6 6 -1 11 2 17 5 13 3 -3 4 -12 1 -19z m102 -20 c-19
-99 -21 -118 -12 -118 6 0 15 24 21 53 l11 52 -4 -49 c-3 -27 -5 -69 -5 -93 0
-24 -4 -42 -9 -39 -5 3 -7 19 -5 36 2 16 -1 30 -6 30 -6 0 -10 -16 -10 -35 0
-19 -4 -35 -9 -35 -5 0 -7 21 -6 47 4 66 28 193 36 193 3 0 3 -19 -2 -42z
m308 10 c-3 -7 -5 -2 -5 12 0 14 2 19 5 13 2 -7 2 -19 0 -25z m-277 2 c0 -11
-4 -20 -9 -20 -5 0 -7 9 -4 20 3 11 7 20 9 20 2 0 4 -9 4 -20z m-325 -74 c-25
-103 -37 -121 -18 -28 20 103 23 112 31 112 4 0 -1 -38 -13 -84z m40 44 c-4
-17 -9 -29 -12 -26 -3 2 -2 19 2 36 4 17 9 29 12 26 3 -2 2 -19 -2 -36z m302
-12 c-2 -13 -4 -5 -4 17 -1 22 1 32 4 23 2 -10 2 -28 0 -40z m53 -38 c0 -49
-4 -90 -9 -90 -5 0 -8 17 -6 38 2 20 3 61 4 90 2 89 11 57 11 -38z m-436 65
c-4 -8 -10 -15 -15 -15 -4 0 -6 7 -3 15 4 8 10 15 15 15 4 0 6 -7 3 -15z m217
-48 c-18 -52 -21 -77 -10 -77 5 0 9 9 9 20 0 11 3 20 8 20 4 0 6 -18 4 -40 -2
-22 -9 -40 -14 -40 -6 0 -8 7 -4 15 3 8 1 15 -4 15 -6 0 -10 -6 -11 -12 -3
-38 -7 -151 -8 -205 -1 -35 -5 -63 -10 -63 -5 0 -8 21 -6 48 2 26 4 90 6 142
1 88 37 252 47 222 2 -7 -1 -27 -7 -45z m246 -84 c-7 -160 -5 -143 -14 -143
-5 0 -6 35 -3 77 3 43 6 106 5 141 0 34 4 62 9 62 4 0 6 -62 3 -137z m-366 72
c-9 -30 -19 -55 -23 -55 -4 0 -4 10 1 23 5 12 9 25 10 30 3 27 14 57 21 57 4
0 0 -25 -9 -55z m32 10 c-15 -44 -31 -66 -18 -24 7 21 13 46 14 62 1 4 5 7 10
7 6 0 3 -20 -6 -45z m41 30 c-4 -8 -10 -15 -15 -15 -4 0 -6 7 -3 15 4 8 10 15
15 15 4 0 6 -7 3 -15z m1499 8 c-7 -2 -19 -2 -25 0 -7 3 -2 5 12 5 14 0 19 -2
13 -5z m244 -30 c-3 -10 -5 -4 -5 12 0 17 2 24 5 18 2 -7 2 -21 0 -30z m193
22 c0 -8 -2 -15 -4 -15 -2 0 -6 7 -10 15 -3 8 -1 15 4 15 6 0 10 -7 10 -15z
m-2093 -35 c-6 -22 -13 -38 -15 -36 -6 7 10 76 18 76 4 0 2 -18 -3 -40z m610
8 c-3 -7 -5 -2 -5 12 0 14 2 19 5 13 2 -7 2 -19 0 -25z m-637 2 c0 -11 -4 -20
-9 -20 -5 0 -7 9 -4 20 3 11 7 20 9 20 2 0 4 -9 4 -20z m251 -11 c-5 -13 -10
-19 -10 -12 -1 15 10 45 15 40 3 -2 0 -15 -5 -28z m1626 -1 c-3 -7 -5 -2 -5
12 0 14 2 19 5 13 2 -7 2 -19 0 -25z m-1570 0 c-3 -8 -6 -5 -6 6 -1 11 2 17 5
13 3 -3 4 -12 1 -19z m113 -38 c0 -33 -4 -60 -8 -60 -5 0 -8 17 -6 38 2 20 3
47 3 60 1 12 3 22 6 22 3 0 5 -27 5 -60z m1487 23 c-3 -10 -5 -4 -5 12 0 17 2
24 5 18 2 -7 2 -21 0 -30z m-1742 0 c-11 -44 -13 -56 -14 -80 -1 -13 -5 -23
-10 -23 -8 0 1 70 15 113 9 28 17 19 9 -10z m-85 2 c0 -8 -4 -15 -10 -15 -5 0
-7 7 -4 15 4 8 8 15 10 15 2 0 4 -7 4 -15z m312 -25 c-6 -41 -12 -38 -12 6 0
19 4 33 8 30 5 -3 7 -19 4 -36z m195 8 c-3 -8 -6 -5 -6 6 -1 11 2 17 5 13 3
-3 4 -12 1 -19z m1351 -3 c-3 -3 -9 2 -12 12 -6 14 -5 15 5 6 7 -7 10 -15 7
-18z m-1951 -7 c-3 -8 -6 -5 -6 6 -1 11 2 17 5 13 3 -3 4 -12 1 -19z m315 -35
c-3 -53 -6 -58 -28 -59 -13 -1 -24 2 -24 7 0 5 9 9 19 9 15 0 19 7 19 28 -1
50 2 72 10 72 4 0 6 -26 4 -57z m805 35 c-3 -8 -6 -5 -6 6 -1 11 2 17 5 13 3
-3 4 -12 1 -19z m780 -15 c-3 -10 -5 -4 -5 12 0 17 2 24 5 18 2 -7 2 -21 0
-30z m-150 -5 c-3 -7 -5 -2 -5 12 0 14 2 19 5 13 2 -7 2 -19 0 -25z m20 0 c-3
-7 -5 -2 -5 12 0 14 2 19 5 13 2 -7 2 -19 0 -25z m-1690 0 c-3 -8 -6 -5 -6 6
-1 11 2 17 5 13 3 -3 4 -12 1 -19z m610 0 c-3 -8 -6 -5 -6 6 -1 11 2 17 5 13
3 -3 4 -12 1 -19z m30 -20 c-3 -7 -5 -2 -5 12 0 14 2 19 5 13 2 -7 2 -19 0
-25z m-612 2 c-3 -5 -2 -10 4 -10 5 0 12 6 15 13 3 6 3 -8 1 -33 -2 -25 -4
-64 -4 -87 -1 -24 -5 -43 -10 -43 -8 0 -6 76 4 123 2 9 -1 17 -5 17 -12 0 -19
-41 -25 -160 -4 -57 -8 -106 -10 -109 -11 -10 -35 11 -34 31 l0 23 9 -22 c13
-33 19 -28 18 15 -1 37 7 130 18 210 4 23 11 42 16 42 5 0 6 -4 3 -10z m472
-22 c-3 -7 -5 -2 -5 12 0 14 2 19 5 13 2 -7 2 -19 0 -25z m170 0 c-3 -7 -5 -2
-5 12 0 14 2 19 5 13 2 -7 2 -19 0 -25z m170 0 c-3 -7 -5 -2 -5 12 0 14 2 19
5 13 2 -7 2 -19 0 -25z m113 12 c0 -11 -2 -20 -4 -20 -2 0 -6 9 -9 20 -3 11
-1 20 4 20 5 0 9 -9 9 -20z m-630 0 c0 -5 -5 -10 -11 -10 -5 0 -7 5 -4 10 3 6
8 10 11 10 2 0 4 -4 4 -10z m237 -22 c-3 -7 -5 -2 -5 12 0 14 2 19 5 13 2 -7
2 -19 0 -25z m921 12 c-7 -10 -14 -18 -15 -16 -6 6 9 36 18 36 5 0 4 -9 -3
-20z m139 -12 c-3 -7 -5 -2 -5 12 0 14 2 19 5 13 2 -7 2 -19 0 -25z m50 0 c-3
-7 -5 -2 -5 12 0 14 2 19 5 13 2 -7 2 -19 0 -25z m130 -5 c-3 -10 -5 -4 -5 12
0 17 2 24 5 18 2 -7 2 -21 0 -30z m-1367 -59 c-5 -48 -4 -54 12 -54 10 0 18
-5 18 -10 0 -6 -8 -10 -17 -8 -16 3 -18 -9 -18 -129 1 -129 0 -132 -22 -136
-23 -4 -23 -4 -23 111 0 63 2 113 5 111 2 -3 5 -51 6 -107 1 -56 5 -102 10
-102 5 0 9 55 9 123 0 147 11 298 20 273 3 -10 3 -42 0 -72z m304 71 c3 -8 1
-15 -4 -15 -6 0 -10 7 -10 15 0 8 2 15 4 15 2 0 6 -7 10 -15z m23 -7 c-3 -8
-6 -5 -6 6 -1 11 2 17 5 13 3 -3 4 -12 1 -19z m140 -10 c-3 -7 -5 -2 -5 12 0
14 2 19 5 13 2 -7 2 -19 0 -25z m883 -3 c0 -19 -2 -35 -4 -35 -2 0 -6 16 -8
35 -2 19 0 35 4 35 4 0 8 -16 8 -35z m147 3 c-3 -7 -5 -2 -5 12 0 14 2 19 5
13 2 -7 2 -19 0 -25z m-1340 -10 c-3 -7 -5 -2 -5 12 0 14 2 19 5 13 2 -7 2
-19 0 -25z m206 12 c3 -11 1 -20 -4 -20 -5 0 -9 9 -9 20 0 11 2 20 4 20 2 0 6
-9 9 -20z m134 -17 c-3 -10 -5 -4 -5 12 0 17 2 24 5 18 2 -7 2 -21 0 -30z
m723 -35 c0 -39 -3 -69 -6 -65 -4 3 -6 33 -6 67 1 72 1 70 7 70 3 0 5 -32 5
-72z m-1330 37 c0 -14 -4 -25 -8 -25 -7 0 -8 31 -3 48 4 11 11 -3 11 -23z m30
21 c0 -3 -4 -8 -10 -11 -5 -3 -10 -1 -10 4 0 6 5 11 10 11 6 0 10 -2 10 -4z
m26 -18 c-3 -13 -5 -44 -5 -70 -1 -27 -4 -48 -8 -48 -5 0 -7 31 -5 70 2 38 8
70 13 70 5 0 7 -10 5 -22z m891 -30 c-2 -13 -4 -5 -4 17 -1 22 1 32 4 23 2
-10 2 -28 0 -40z m616 32 c3 -11 1 -20 -4 -20 -5 0 -9 9 -9 20 0 11 2 20 4 20
2 0 6 -9 9 -20z m-1716 -30 c0 -22 -4 -40 -9 -40 -4 0 -8 18 -8 40 0 22 4 40
8 40 5 0 9 -18 9 -40z m310 8 c-3 -7 -5 -2 -5 12 0 14 2 19 5 13 2 -7 2 -19 0
-25z m200 10 c-3 -8 -6 -5 -6 6 -1 11 2 17 5 13 3 -3 4 -12 1 -19z m35 -3 c3
-14 2 -25 -2 -25 -4 0 -10 11 -12 25 -3 14 -2 25 2 25 4 0 10 -11 12 -25z
m141 5 c3 -11 1 -20 -4 -20 -5 0 -9 9 -9 20 0 11 2 20 4 20 2 0 6 -9 9 -20z
m116 -40 c0 -23 -1 -23 -9 -5 -5 11 -9 31 -9 45 0 23 1 23 9 5 5 -11 9 -31 9
-45z m-429 25 c0 -14 -2 -25 -4 -25 -2 0 -6 11 -8 25 -3 14 -1 25 3 25 5 0 9
-11 9 -25z m197 -7 c-3 -7 -5 -2 -5 12 0 14 2 19 5 13 2 -7 2 -19 0 -25z
m-400 -15 c-3 -10 -5 -4 -5 12 0 17 2 24 5 18 2 -7 2 -21 0 -30z m170 5 c-3
-7 -5 -2 -5 12 0 14 2 19 5 13 2 -7 2 -19 0 -25z m125 -3 c2 -19 0 -35 -4 -35
-4 0 -8 16 -8 35 0 19 2 35 4 35 2 0 6 -16 8 -35z m29 18 c0 -10 3 -38 6 -63
3 -25 2 -42 -1 -39 -3 3 -9 26 -12 50 -3 24 -7 50 -9 57 -3 6 0 12 5 12 6 0
10 -8 11 -17z m249 -3 c0 -11 -2 -20 -4 -20 -2 0 -6 9 -9 20 -3 11 -1 20 4 20
5 0 9 -9 9 -20z m675 10 c3 -6 -1 -7 -9 -4 -18 7 -21 14 -7 14 6 0 13 -4 16
-10z m-1602 -20 c-3 -11 -9 -20 -13 -20 -5 0 -6 9 -3 20 3 11 9 20 13 20 5 0
6 -9 3 -20z m217 10 c0 -5 -4 -10 -10 -10 -5 0 -10 5 -10 10 0 6 5 10 10 10 6
0 10 -4 10 -10z m30 0 c0 -5 -4 -10 -10 -10 -5 0 -10 5 -10 10 0 6 5 10 10 10
6 0 10 -4 10 -10z m30 0 c0 -5 -4 -10 -10 -10 -5 0 -10 5 -10 10 0 6 5 10 10
10 6 0 10 -4 10 -10z m30 0 c0 -5 -4 -10 -10 -10 -5 0 -10 5 -10 10 0 6 5 10
10 10 6 0 10 -4 10 -10z m167 -22 c-3 -7 -5 -2 -5 12 0 14 2 19 5 13 2 -7 2
-19 0 -25z m120 -24 c3 -27 2 -46 -1 -43 -4 4 -9 28 -13 55 -3 27 -2 46 1 43
4 -4 9 -28 13 -55z m20 24 c-3 -7 -5 -2 -5 12 0 14 2 19 5 13 2 -7 2 -19 0
-25z m206 12 c3 -11 2 -20 -3 -20 -4 0 -10 9 -13 20 -3 11 -2 20 3 20 4 0 10
-9 13 -20z m27 0 c0 -11 -2 -20 -4 -20 -2 0 -6 9 -9 20 -3 11 -1 20 4 20 5 0
9 -9 9 -20z m250 16 c0 -3 -4 -8 -10 -11 -5 -3 -10 -1 -10 4 0 6 5 11 10 11 6
0 10 -2 10 -4z m677 -33 c-3 -10 -5 -4 -5 12 0 17 2 24 5 18 2 -7 2 -21 0 -30z
m63 28 c0 -5 -7 -12 -16 -15 -14 -5 -15 -4 -4 9 14 17 20 19 20 6z m17 -23
c-3 -7 -5 -2 -5 12 0 14 2 19 5 13 2 -7 2 -19 0 -25z m-1898 -22 c-9 -8 -10
-7 -5 7 3 10 7 24 7 30 1 7 3 4 6 -7 3 -10 -1 -23 -8 -30z m753 14 c3 -16 1
-30 -3 -30 -4 0 -9 14 -11 30 -3 17 -1 30 3 30 4 0 9 -13 11 -30z m251 10 c3
-11 1 -20 -4 -20 -5 0 -9 9 -9 20 0 11 2 20 4 20 2 0 6 -9 9 -20z m737 16 c0
-3 -4 -8 -10 -11 -5 -3 -10 -1 -10 4 0 6 5 11 10 11 6 0 10 -2 10 -4z m-1970
-93 c13 -53 31 -95 42 -105 11 -10 17 -18 13 -18 -3 0 1 -7 9 -16 9 -8 20 -12
26 -9 5 3 10 1 10 -4 0 -6 -4 -11 -10 -11 -5 0 -10 -12 -10 -26 0 -14 -4 -23
-10 -19 -6 4 -8 10 -5 15 3 5 1 11 -5 15 -6 4 -8 11 -5 16 4 5 2 9 -3 9 -4 0
-17 17 -27 38 -22 46 -65 202 -55 202 4 0 17 -39 30 -87z m1408 22 l1 -20 -9
20 c-5 11 -8 31 -8 45 l0 25 8 -25 c4 -14 8 -34 8 -45z m464 43 c-7 -7 -12 -8
-12 -2 0 14 12 26 19 19 2 -3 -1 -11 -7 -17z m-1662 -13 c0 -14 -4 -25 -9 -25
-5 0 -8 11 -8 25 0 14 3 25 8 25 5 0 9 -11 9 -25z m280 15 c0 -5 -4 -10 -10
-10 -5 0 -10 5 -10 10 0 6 5 10 10 10 6 0 10 -4 10 -10z m30 0 c0 -5 -4 -10
-10 -10 -5 0 -10 5 -10 10 0 6 5 10 10 10 6 0 10 -4 10 -10z m28 -15 c0 -14
-4 -25 -9 -25 -5 0 -9 11 -9 25 0 14 4 25 9 25 5 0 9 -11 9 -25z m32 15 c0 -5
-4 -10 -10 -10 -5 0 -10 5 -10 10 0 6 5 10 10 10 6 0 10 -4 10 -10z m30 6 c0
-3 -4 -8 -10 -11 -5 -3 -10 -1 -10 4 0 6 5 11 10 11 6 0 10 -2 10 -4z m403
-16 c3 -11 1 -20 -4 -20 -5 0 -9 9 -9 20 0 11 2 20 4 20 2 0 6 -9 9 -20z m31
-15 c3 -17 8 -39 10 -50 2 -11 7 -42 10 -70 4 -27 9 -58 12 -67 3 -10 1 -18
-3 -18 -8 0 -43 190 -43 229 0 22 8 8 14 -24z m37 -45 c7 -44 16 -80 21 -80 8
0 2 55 -8 71 -2 4 -1 10 4 13 5 3 13 -17 18 -45 10 -48 10 -49 -13 -49 -14 0
-23 6 -23 15 0 8 -1 18 -2 23 -14 63 -23 132 -18 132 4 0 13 -36 21 -80z m206
48 c-3 -7 -5 -2 -5 12 0 14 2 19 5 13 2 -7 2 -19 0 -25z m514 5 c-12 -20 -14
-14 -5 12 4 9 9 14 11 11 3 -2 0 -13 -6 -23z m156 -60 c-2 -16 -4 -3 -4 27 0
30 2 43 4 28 2 -16 2 -40 0 -55z m70 40 c-3 -10 -5 -4 -5 12 0 17 2 24 5 18 2
-7 2 -21 0 -30z m-1757 23 c0 -3 -4 -8 -10 -11 -5 -3 -10 -1 -10 4 0 6 5 11
10 11 6 0 10 -2 10 -4z m357 -63 c-2 -16 -4 -5 -4 22 0 28 2 40 4 28 2 -13 2
-35 0 -50z m123 57 c0 -5 -4 -10 -10 -10 -5 0 -10 5 -10 10 0 6 5 10 10 10 6
0 10 -4 10 -10z m27 -5 c0 -8 -4 -12 -9 -9 -5 3 -6 10 -3 15 9 13 12 11 12 -6z
m125 -20 c2 -19 1 -35 -3 -35 -4 0 -9 16 -11 35 -2 19 -1 35 3 35 4 0 9 -16
11 -35z m195 3 c-3 -7 -5 -2 -5 12 0 14 2 19 5 13 2 -7 2 -19 0 -25z m33 22
c0 -5 -2 -10 -4 -10 -3 0 -8 5 -11 10 -3 6 -1 10 4 10 6 0 11 -4 11 -10z m53
-10 c3 -11 1 -20 -4 -20 -5 0 -9 9 -9 20 0 11 2 20 4 20 2 0 6 -9 9 -20z m38
-55 c8 -41 12 -75 8 -75 -5 0 -11 17 -15 38 -3 20 -10 54 -14 75 -4 20 -5 37
-1 37 4 0 13 -34 22 -75z m108 20 l0 -20 -9 20 c-5 11 -9 29 -9 40 l0 20 9
-20 c5 -11 9 -29 9 -40z m-1209 31 c0 -8 3 -23 6 -33 5 -12 4 -15 -3 -8 -16
15 -26 55 -14 55 6 0 11 -6 11 -14z m60 4 c0 -5 -4 -10 -10 -10 -5 0 -10 5
-10 10 0 6 5 10 10 10 6 0 10 -4 10 -10z m273 -15 c-3 -8 0 -15 6 -15 6 0 11
9 11 20 0 11 4 20 8 20 5 0 7 -38 5 -85 -3 -57 -1 -85 6 -85 7 0 11 22 11 56
0 30 3 53 8 51 11 -7 2 -157 -9 -157 -6 0 -7 9 -4 20 4 11 2 20 -4 20 -6 0
-11 -9 -11 -20 0 -11 -4 -20 -8 -20 -5 0 -7 38 -5 85 3 57 1 85 -6 85 -7 0
-11 -25 -11 -65 0 -36 -3 -65 -8 -65 -4 0 -7 19 -5 43 1 23 2 64 2 90 1 28 5
46 11 42 5 -3 7 -12 3 -20z m63 0 c-1 -33 -16 -33 -16 0 0 14 4 25 9 25 5 0 8
-11 7 -25z m64 15 c0 -5 -4 -10 -10 -10 -5 0 -10 5 -10 10 0 6 5 10 10 10 6 0
10 -4 10 -10z m30 6 c0 -3 -4 -8 -10 -11 -5 -3 -10 -1 -10 4 0 6 5 11 10 11 6
0 10 -2 10 -4z m227 -33 c-3 -10 -5 -4 -5 12 0 17 2 24 5 18 2 -7 2 -21 0 -30z
m400 0 c-3 -10 -5 -4 -5 12 0 17 2 24 5 18 2 -7 2 -21 0 -30z m33 12 c0 -14
-2 -25 -4 -25 -2 0 -6 11 -8 25 -3 14 -1 25 3 25 5 0 9 -11 9 -25z m107 -7
c-3 -7 -5 -2 -5 12 0 14 2 19 5 13 2 -7 2 -19 0 -25z m453 22 c0 -5 -5 -10
-11 -10 -5 0 -7 5 -4 10 3 6 8 10 11 10 2 0 4 -4 4 -10z m262 -15 c3 -14 1
-25 -3 -25 -5 0 -9 11 -9 25 0 14 2 25 4 25 2 0 6 -11 8 -25z m-1279 -5 c3
-11 1 -20 -4 -20 -5 0 -9 9 -9 20 0 11 2 20 4 20 2 0 6 -9 9 -20z m120 0 c3
-11 1 -23 -4 -26 -5 -3 -9 6 -9 20 0 31 6 34 13 6z m788 -7 c-12 -20 -14 -14
-5 12 4 9 9 14 11 11 3 -2 0 -13 -6 -23z m202 -9 c7 1 9 1 5 -1 -4 -3 -10 -3
-14 -1 -3 2 -12 -8 -21 -22 -9 -16 -12 -18 -7 -5 3 11 9 31 12 45 6 24 7 24
10 3 2 -12 9 -21 15 -19z m-1653 22 c0 -3 -4 -8 -10 -11 -5 -3 -10 -1 -10 4 0
6 5 11 10 11 6 0 10 -2 10 -4z m420 -6 c0 -5 -4 -10 -10 -10 -5 0 -10 5 -10
10 0 6 5 10 10 10 6 0 10 -4 10 -10z m302 -15 c6 -29 -7 -34 -15 -6 -4 17 0
31 9 31 1 0 4 -11 6 -25z m31 5 c3 -11 1 -23 -4 -26 -5 -3 -9 6 -9 20 0 31 6
34 13 6z m116 -35 l0 -20 -9 20 c-5 11 -9 29 -9 40 l0 20 9 -20 c5 -11 9 -29
9 -40z m21 35 c0 -11 -2 -20 -4 -20 -2 0 -6 9 -9 20 -3 11 -1 20 4 20 5 0 9
-9 9 -20z m143 0 c3 -11 1 -20 -4 -20 -5 0 -9 9 -9 20 0 11 2 20 4 20 2 0 6
-9 9 -20z m704 -17 c-3 -10 -5 -4 -5 12 0 17 2 24 5 18 2 -7 2 -21 0 -30z
m-1463 -13 c-2 -16 1 -30 6 -30 6 0 10 16 10 36 0 19 4 33 8 30 4 -2 7 -22 6
-43 -1 -21 -3 -68 -3 -105 -1 -38 -5 -68 -10 -68 -5 0 -7 31 -4 70 2 45 0 70
-6 70 -7 0 -11 -28 -11 -70 0 -68 -1 -70 -25 -70 -14 0 -25 5 -25 10 0 6 8 10
18 8 18 -3 18 -1 21 170 1 18 5 31 10 28 5 -3 7 -19 5 -36z m66 30 c0 -5 -4
-10 -10 -10 -5 0 -10 5 -10 10 0 6 5 10 10 10 6 0 10 -4 10 -10z m173 -50 c9
0 9 -2 0 -8 -6 -4 -13 -30 -16 -57 -2 -28 -3 -9 -4 40 0 50 2 75 4 58 2 -18
10 -33 16 -33z m1037 56 c0 -3 -4 -8 -10 -11 -5 -3 -10 -1 -10 4 0 6 5 11 10
11 6 0 10 -2 10 -4z m383 -16 c3 -11 2 -20 -3 -20 -4 0 -10 9 -13 20 -3 11 -2
20 3 20 4 0 10 -9 13 -20z m-1963 0 c0 -5 -2 -10 -4 -10 -3 0 -8 5 -11 10 -3
6 -1 10 4 10 6 0 11 -4 11 -10z m90 0 c0 -5 -4 -10 -10 -10 -5 0 -10 5 -10 10
0 6 5 10 10 10 6 0 10 -4 10 -10z m863 -10 c3 -11 1 -20 -4 -20 -5 0 -9 9 -9
20 0 11 2 20 4 20 2 0 6 -9 9 -20z m164 -12 c-3 -7 -5 -2 -5 12 0 14 2 19 5
13 2 -7 2 -19 0 -25z m683 28 c0 -3 -4 -8 -10 -11 -5 -3 -10 -1 -10 4 0 6 5
11 10 11 6 0 10 -2 10 -4z m30 -6 c0 -5 -5 -10 -11 -10 -5 0 -7 5 -4 10 3 6 8
10 11 10 2 0 4 -4 4 -10z m-1986 -54 c13 -20 15 -31 8 -34 -7 -2 -12 -8 -12
-14 0 -6 7 -7 16 -4 10 4 14 1 12 -6 -8 -24 -33 -18 -50 12 -9 16 -13 30 -8
30 6 0 10 -4 10 -10 0 -5 5 -10 10 -10 17 0 11 20 -15 46 -14 14 -23 30 -20
35 7 11 22 -3 49 -45z m606 50 c0 -3 -4 -8 -10 -11 -5 -3 -10 -1 -10 4 0 6 5
11 10 11 6 0 10 -2 10 -4z m51 -58 c-3 -41 -6 -55 -10 -39 -7 28 -2 101 8 101
3 0 4 -28 2 -62z m141 26 c2 -19 0 -37 -4 -40 -4 -3 -8 6 -8 20 0 13 -3 31 -6
40 -3 9 -2 16 4 16 5 0 12 -16 14 -36z m505 14 c-3 -8 -6 -5 -6 6 -1 11 2 17
5 13 3 -3 4 -12 1 -19z m41 -38 l0 -25 -8 25 c-4 14 -8 34 -8 45 l-1 20 9 -20
c5 -11 8 -31 8 -45z m22 40 c0 -11 -2 -20 -4 -20 -2 0 -6 9 -9 20 -3 11 -1 20
4 20 5 0 9 -9 9 -20z m-845 -17 c-2 -16 -4 -52 -4 -82 -1 -61 -11 -65 -12 -5
-2 78 1 114 10 114 5 0 8 -12 6 -27z m215 7 c0 -11 -2 -20 -4 -20 -2 0 -6 9
-9 20 -3 11 -1 20 4 20 5 0 9 -9 9 -20z m32 -15 c2 -19 1 -35 -3 -35 -4 0 -9
16 -11 35 -2 19 -1 35 3 35 4 0 9 -16 11 -35z m115 23 c1 -7 4 -40 7 -73 5
-55 5 -57 -4 -15 -18 89 -19 100 -11 100 4 0 8 -6 8 -12z m292 -30 c1 -5 -3
-8 -9 -8 -5 0 -10 12 -9 28 0 24 1 25 9 7 5 -11 9 -23 9 -27z m27 -8 c6 -27 8
-50 4 -50 -3 0 -11 23 -16 50 -6 28 -8 50 -4 50 3 0 11 -22 16 -50z m822 -15
c0 -14 -3 -10 -11 11 -11 27 -15 30 -39 23 -38 -10 -35 -1 5 16 30 13 32 12
39 -8 3 -12 6 -31 6 -42z m-1968 45 c0 -5 -2 -10 -4 -10 -3 0 -8 5 -11 10 -3
6 -1 10 4 10 6 0 11 -4 11 -10z m182 -25 c-6 -34 -12 -32 -12 6 0 16 4 28 9
25 4 -3 6 -17 3 -31z m38 25 c0 -5 -4 -10 -10 -10 -5 0 -10 5 -10 10 0 6 5 10
10 10 6 0 10 -4 10 -10z m549 -17 c0 -25 -1 -25 -8 -8 -5 11 -7 23 -4 28 8 14
13 7 12 -20z m37 -38 c6 -36 6 -65 2 -65 -4 0 -8 6 -9 13 -2 31 -10 93 -14
105 -2 6 -1 12 4 12 4 0 12 -29 17 -65z m224 45 c0 -11 -2 -20 -4 -20 -2 0 -6
9 -9 20 -3 11 -1 20 4 20 5 0 9 -9 9 -20z m167 -17 c-3 -10 -5 -4 -5 12 0 17
2 24 5 18 2 -7 2 -21 0 -30z m603 33 c0 -11 -19 -15 -25 -6 -3 5 1 10 9 10 9
0 16 -2 16 -4z m81 -9 c-6 -8 -9 -17 -6 -21 3 -3 -1 -1 -7 4 -10 9 -10 13 2
20 21 13 24 12 11 -3z m-1022 -24 c0 -25 -1 -25 -8 -8 -5 11 -7 23 -4 28 8 14
13 7 12 -20z m32 15 c1 -27 10 -89 18 -133 5 -25 6 -47 2 -49 -4 -3 -14 40
-22 95 -8 54 -11 99 -7 99 4 0 8 -6 9 -12z m-404 -35 c-3 -10 -5 -4 -5 12 0
17 2 24 5 18 2 -7 2 -21 0 -30z m33 33 c0 -3 -4 -8 -10 -11 -5 -3 -10 -1 -10
4 0 6 5 11 10 11 6 0 10 -2 10 -4z m548 -61 l1 -20 -9 20 c-5 11 -8 31 -8 45
l0 25 8 -25 c4 -14 8 -34 8 -45z m195 45 c3 -11 2 -20 -3 -20 -4 0 -10 9 -13
20 -3 11 -2 20 3 20 4 0 10 -9 13 -20z m498 -7 c-12 -20 -14 -14 -5 12 4 9 9
14 11 11 3 -2 0 -13 -6 -23z m57 -26 c-13 -26 -17 -18 -10 23 4 29 6 31 12 15
4 -11 3 -28 -2 -38z m-1604 -4 c-1 -27 -3 -56 -3 -66 -1 -10 -5 -16 -9 -13 -5
3 -8 15 -6 28 1 13 3 40 3 61 1 20 5 37 9 37 5 0 8 -21 6 -47z m36 37 c0 -5
-4 -10 -10 -10 -5 0 -10 5 -10 10 0 6 5 10 10 10 6 0 10 -4 10 -10z m769 -66
c7 -42 10 -78 7 -81 -3 -4 -6 -2 -6 3 0 5 -6 42 -14 82 -7 39 -10 72 -6 72 4
0 13 -34 19 -76z m314 -3 c-7 -9 -14 8 -19 45 l-4 39 13 -40 c8 -22 12 -42 10
-44z m12 69 c3 -5 1 -10 -4 -10 -6 0 -11 5 -11 10 0 6 2 10 4 10 3 0 8 -4 11
-10z m604 -50 c0 -23 -1 -23 -9 -5 -5 11 -9 31 -9 45 0 23 1 23 9 5 5 -11 9
-31 9 -45z m-769 25 c0 -14 -2 -25 -4 -25 -2 0 -6 11 -8 25 -3 14 -1 25 3 25
5 0 9 -11 9 -25z m201 0 c5 4 9 1 9 -4 0 -6 -7 -11 -15 -11 -9 0 -15 9 -14 23
1 17 2 18 6 4 2 -9 9 -15 14 -12z m538 -2 c-1 -22 -3 -24 -6 -7 -3 16 -10 21
-26 18 -21 -4 -21 -4 -2 5 31 15 35 13 34 -16z m-1412 -105 c-2 -24 -4 -5 -4
42 0 47 2 66 4 43 2 -24 2 -62 0 -85z m153 82 c0 -22 -3 -40 -7 -40 -5 0 -8
18 -8 40 0 22 3 40 8 40 4 0 7 -18 7 -40z m382 15 c3 -14 1 -25 -3 -25 -5 0
-9 11 -9 25 0 14 2 25 4 25 2 0 6 -11 8 -25z m-792 6 c0 -6 -4 -13 -10 -16 -5
-3 -10 1 -10 9 0 9 5 16 10 16 6 0 10 -4 10 -9z m530 -1 c0 -5 -5 -10 -11 -10
-5 0 -7 5 -4 10 3 6 8 10 11 10 2 0 4 -4 4 -10z m463 -10 c3 -11 1 -20 -4 -20
-5 0 -9 9 -9 20 0 11 2 20 4 20 2 0 6 -9 9 -20z m-526 -27 c-3 -10 -5 -4 -5
12 0 17 2 24 5 18 2 -7 2 -21 0 -30z m39 -28 c6 -36 7 -65 4 -65 -4 0 -11 29
-16 65 -6 36 -7 65 -4 65 4 0 11 -29 16 -65z m511 43 c-3 -8 -6 -5 -6 6 -1 11
2 17 5 13 3 -3 4 -12 1 -19z m42 -38 c0 -23 -1 -23 -9 -5 -5 11 -9 31 -9 45 0
23 1 23 9 5 5 -11 9 -31 9 -45z m-347 25 c3 -14 1 -25 -3 -25 -5 0 -9 11 -9
25 0 14 2 25 4 25 2 0 6 -11 8 -25z m30 0 c6 -29 -7 -34 -15 -6 -4 17 0 31 9
31 1 0 4 -11 6 -25z m108 0 c0 -14 -2 -25 -4 -25 -2 0 -6 11 -8 25 -3 14 -1
25 3 25 5 0 9 -11 9 -25z m-318 -10 c3 -14 1 -25 -3 -25 -5 0 -9 11 -9 25 0
14 2 25 4 25 2 0 6 -11 8 -25z m438 0 c0 -14 -2 -25 -4 -25 -2 0 -6 11 -8 25
-3 14 -1 25 3 25 5 0 9 -11 9 -25z m-1040 -1 c0 -8 -5 -12 -10 -9 -6 4 -8 11
-5 16 9 14 15 11 15 -7z m62 -14 c-6 -39 -12 -39 -12 0 0 17 4 30 8 30 5 0 7
-13 4 -30z m31 -12 c-1 -24 -2 -51 -2 -60 -1 -10 -5 -18 -9 -18 -4 0 -7 12 -6
27 1 16 3 43 3 61 1 17 4 32 9 32 4 0 6 -19 5 -42z m920 22 c3 -11 2 -20 -3
-20 -4 0 -10 9 -13 20 -3 11 -2 20 3 20 4 0 10 -9 13 -20z m417 10 c0 -5 -5
-10 -11 -10 -5 0 -7 5 -4 10 3 6 8 10 11 10 2 0 4 -4 4 -10z m-925 -10 c3 -5
1 -10 -4 -10 -6 0 -11 5 -11 10 0 6 2 10 4 10 3 0 8 -4 11 -10z m374 -32 c1
-5 -3 -8 -9 -8 -5 0 -10 12 -9 28 0 24 1 25 9 7 5 -11 9 -23 9 -27z m21 17 c0
-14 -2 -25 -4 -25 -2 0 -6 11 -8 25 -3 14 -1 25 3 25 5 0 9 -11 9 -25z m203 5
c3 -11 2 -20 -3 -20 -4 0 -10 9 -13 20 -3 11 -2 20 3 20 4 0 10 -9 13 -20z
m273 -8 c-17 -16 -18 -16 -5 5 7 12 15 20 18 17 3 -2 -3 -12 -13 -22z m87 -17
c-15 -24 -29 -42 -32 -40 -4 5 46 85 54 85 2 0 -8 -20 -22 -45z m-289 -44 c-8
-9 -15 8 -19 45 l-5 39 14 -40 c7 -22 12 -42 10 -44z m15 46 c0 -21 -1 -21 -9
-2 -12 28 -12 37 0 30 6 -3 10 -16 9 -28z m461 23 c0 -5 -2 -10 -4 -10 -3 0
-8 5 -11 10 -3 6 -1 10 4 10 6 0 11 -4 11 -10z m-1520 -10 c0 -5 -4 -10 -10
-10 -5 0 -10 5 -10 10 0 6 5 10 10 10 6 0 10 -4 10 -10z m-163 -32 c-3 -7 -5
-2 -5 12 0 14 2 19 5 13 2 -7 2 -19 0 -25z m33 28 c0 -3 -4 -8 -10 -11 -5 -3
-10 -1 -10 4 0 6 5 11 10 11 6 0 10 -2 10 -4z m447 -43 c-3 -10 -5 -2 -5 17 0
19 2 27 5 18 2 -10 2 -26 0 -35z m223 22 c0 -32 -6 -32 -12 0 -3 14 -1 25 3
25 5 0 9 -11 9 -25z m152 0 c6 -29 -7 -34 -15 -6 -4 17 0 31 9 31 1 0 4 -11 6
-25z m590 -20 c-15 -24 -32 -46 -38 -49 -6 -2 3 18 20 45 39 61 55 65 18 4z
m-1622 15 c-8 -5 -17 -7 -19 -4 -3 3 1 9 9 14 8 5 17 7 19 4 3 -3 -1 -9 -9
-14z m819 -7 c0 -25 -1 -25 -8 -8 -5 11 -7 23 -4 28 8 14 13 7 12 -20z m31 2
c0 -32 -6 -32 -12 0 -3 14 -1 25 3 25 5 0 9 -11 9 -25z m122 0 c3 -14 2 -25
-2 -25 -4 0 -10 11 -12 25 -3 14 -2 25 2 25 4 0 10 -11 12 -25z m260 0 c3 -14
1 -25 -3 -25 -5 0 -9 11 -9 25 0 32 6 32 12 0z m37 -17 c1 -5 -3 -8 -8 -8 -11
0 -21 37 -13 45 6 5 20 -19 21 -37z m329 22 c-7 -10 -14 -18 -15 -16 -6 6 9
36 18 36 5 0 4 -9 -3 -20z m-273 1 c3 -5 1 -12 -5 -16 -5 -3 -10 1 -10 9 0 18
6 21 15 7z m119 -23 c7 -5 4 -8 -6 -8 -12 0 -18 7 -17 23 0 15 2 17 6 7 3 -8
11 -18 17 -22z m81 22 c2 -4 -8 -6 -23 -5 -16 1 -30 -5 -34 -14 -6 -13 -7 -13
-7 2 -1 10 -5 15 -11 12 -5 -3 -10 -1 -10 5 0 11 78 11 85 0z m-1320 -10 c3
-5 1 -10 -4 -10 -6 0 -11 5 -11 10 0 6 2 10 4 10 3 0 8 -4 11 -10z m35 0 c0
-5 -5 -10 -11 -10 -5 0 -7 5 -4 10 3 6 8 10 11 10 2 0 4 -4 4 -10z m30 0 c0
-5 -2 -10 -4 -10 -3 0 -8 5 -11 10 -3 6 -1 10 4 10 6 0 11 -4 11 -10z m445
-25 c0 -14 -3 -25 -7 -25 -4 0 -8 14 -8 32 0 36 13 30 15 -7z m832 3 c-3 -7
-5 -2 -5 12 0 14 2 19 5 13 2 -7 2 -19 0 -25z m-907 18 c0 -3 -4 -8 -10 -11
-5 -3 -10 -1 -10 4 0 6 5 11 10 11 6 0 10 -2 10 -4z m767 -18 c-3 -8 -6 -5 -6
6 -1 11 2 17 5 13 3 -3 4 -12 1 -19z m-985 -10 c-7 -7 -12 -8 -12 -2 0 14 12
26 19 19 2 -3 -1 -11 -7 -17z m38 6 c0 -8 -5 -12 -10 -9 -6 4 -8 11 -5 16 9
14 15 11 15 -7z m899 -11 c0 -25 -1 -26 -9 -8 -12 27 -12 35 0 35 6 0 10 -12
9 -27z m-1169 7 c0 -5 -4 -10 -10 -10 -5 0 -10 5 -10 10 0 6 5 10 10 10 6 0
10 -4 10 -10z m80 0 c0 -5 -5 -10 -11 -10 -5 0 -7 5 -4 10 3 6 8 10 11 10 2 0
4 -4 4 -10z m1391 -17 c-12 -20 -14 -14 -5 12 4 9 9 14 11 11 3 -2 0 -13 -6
-23z m-1421 13 c0 -3 -4 -8 -10 -11 -5 -3 -10 -1 -10 4 0 6 5 11 10 11 6 0 10
-2 10 -4z m551 -19 c-10 -9 -11 -8 -5 6 3 10 9 15 12 12 3 -3 0 -11 -7 -18z
m596 1 c-3 -8 -6 -5 -6 6 -1 11 2 17 5 13 3 -3 4 -12 1 -19z m50 0 c-3 -8 -6
-5 -6 6 -1 11 2 17 5 13 3 -3 4 -12 1 -19z m-917 2 c0 -5 -5 -10 -11 -10 -5 0
-7 5 -4 10 3 6 8 10 11 10 2 0 4 -4 4 -10z m30 6 c0 -3 -4 -8 -10 -11 -5 -3
-10 -1 -10 4 0 6 5 11 10 11 6 0 10 -2 10 -4z"/>
<path d="M1510 1391 c0 -5 7 -11 15 -15 8 -3 15 -1 15 3 0 5 -7 11 -15 15 -8
3 -15 1 -15 -3z"/>
<path d="M1595 1240 c-3 -5 -1 -10 4 -10 6 0 11 5 11 10 0 6 -2 10 -4 10 -3 0
-8 -4 -11 -10z"/>
<path d="M642 335 c0 -30 2 -55 7 -55 4 0 9 25 10 55 1 30 -2 55 -7 55 -4 0
-9 -25 -10 -55z"/>
<path d="M1906 3671 c-19 -7 -19 -8 0 -13 13 -3 21 0 21 8 0 8 -1 14 -1 13 -1
0 -10 -4 -20 -8z"/>
<path d="M570 1905 c13 -14 26 -25 28 -25 3 0 -5 11 -18 25 -13 14 -26 25 -28
25 -3 0 5 -11 18 -25z"/>
<path d="M580 1781 c0 -5 7 -12 16 -15 14 -5 15 -4 4 9 -14 17 -20 19 -20 6z"/>
<path d="M2807 1089 c7 -7 15 -10 18 -7 3 3 -2 9 -12 12 -14 6 -15 5 -6 -5z"/>
<path d="M2795 1070 c6 -9 -8 -14 -27 -11 -19 3 -5 -20 25 -40 l32 -23 -25 28
c-20 22 -21 26 -6 20 13 -5 17 -4 13 3 -4 6 -2 13 5 15 7 3 5 7 -6 11 -10 4
-15 3 -11 -3z"/>
<path d="M2569 1058 c-6 -15 -4 -58 3 -58 4 0 7 14 6 30 -2 26 -5 36 -9 28z"/>
<path d="M2521 974 c0 -11 3 -14 6 -6 3 7 2 16 -1 19 -3 4 -6 -2 -5 -13z"/>
<path d="M2572 950 c0 -14 2 -19 5 -12 2 6 2 18 0 25 -3 6 -5 1 -5 -13z"/>
<path d="M2795 946 c10 -14 19 -26 22 -26 7 0 -17 39 -28 46 -6 3 -3 -5 6 -20z"/>
<path d="M2552 940 c0 -14 2 -19 5 -12 2 6 2 18 0 25 -3 6 -5 1 -5 -13z"/>
<path d="M2520 940 c0 -5 5 -10 11 -10 5 0 7 5 4 10 -3 6 -8 10 -11 10 -2 0
-4 -4 -4 -10z"/>
<path d="M497 816 c-10 -8 -14 -17 -9 -20 5 -3 17 3 27 14 21 23 9 26 -18 6z"/>
<path d="M309 693 c-1 -5 -1 -11 0 -15 0 -5 -6 -8 -15 -8 -8 0 -12 -5 -9 -11
7 -11 45 16 45 33 0 10 -20 11 -21 1z"/>
<path d="M3550 685 c0 -5 5 -17 10 -25 5 -8 10 -10 10 -5 0 6 -5 17 -10 25 -5
8 -10 11 -10 5z"/>
<path d="M373 650 c-1 -11 2 -20 5 -20 4 0 8 9 9 20 1 11 -2 20 -5 20 -4 0 -8
-9 -9 -20z"/>
<path d="M351 603 c5 -21 9 -41 9 -45 0 -5 5 -8 10 -8 7 0 7 6 2 18 -5 9 -8
25 -7 34 2 9 -3 22 -10 28 -11 9 -11 4 -4 -27z"/>
<path d="M292 609 c1 -12 8 -24 15 -26 7 -3 9 3 6 17 -8 29 -25 37 -21 9z"/>
<path d="M326 597 c3 -10 9 -15 12 -12 3 3 0 11 -7 18 -10 9 -11 8 -5 -6z"/>
<path d="M3590 585 c0 -5 5 -17 10 -25 5 -8 10 -10 10 -5 0 6 -5 17 -10 25 -5
8 -10 11 -10 5z"/>
<path d="M156 551 c-8 -12 21 -61 35 -61 5 0 2 15 -7 33 -21 41 -21 40 -28 28z"/>
<path d="M3592 503 c27 -71 23 -67 45 -53 15 10 15 11 1 6 -14 -4 -21 6 -34
49 -10 30 -21 55 -25 55 -5 0 1 -26 13 -57z"/>
<path d="M394 518 c3 -7 7 -25 10 -40 4 -16 10 -28 15 -28 5 0 5 16 1 34 -4
19 -5 37 -2 40 3 4 -2 6 -11 6 -9 0 -15 -6 -13 -12z"/>
<path d="M3617 514 c-6 -10 9 -42 16 -34 3 3 1 14 -3 24 -3 11 -9 15 -13 10z"/>
<path d="M145 500 c5 -8 10 -21 11 -28 5 -27 14 -42 26 -42 9 0 8 3 -2 10 -8
5 -11 10 -6 10 5 0 3 6 -3 13 -6 8 -9 16 -6 19 3 3 -2 11 -12 19 -15 12 -16
12 -8 -1z"/>
<path d="M106 466 c-12 -26 -14 -41 -6 -62 6 -14 13 -43 16 -62 3 -20 12 -45
19 -56 14 -21 14 -37 0 -69 -8 -20 -2 -101 10 -131 6 -14 5 -17 -3 -12 -7 4
-12 1 -12 -8 0 -8 -5 -18 -11 -22 -8 -5 -10 1 -5 19 4 16 2 27 -7 30 -9 3 -8
8 3 22 9 11 10 16 3 11 -7 -4 -13 -2 -13 3 0 19 5 26 14 23 5 -2 4 4 -4 12
-15 19 -21 20 -17 5 1 -6 -4 -14 -12 -17 -8 -3 -11 0 -7 7 5 7 1 9 -10 4 -14
-5 -14 -8 6 -18 19 -10 20 -13 6 -24 -9 -8 -16 -19 -16 -25 0 -6 7 -2 15 8 8
11 17 18 19 15 2 -2 -2 -13 -10 -23 -13 -19 -14 -19 -34 -1 -11 10 -20 23 -19
29 0 6 3 6 6 -2 2 -6 9 -10 14 -7 5 4 3 12 -4 20 -8 9 -16 10 -25 3 -8 -7 -12
-7 -12 0 0 6 9 17 20 25 19 13 19 15 4 21 -10 4 -22 2 -28 -4 -8 -8 -5 -9 9
-5 18 6 19 6 3 -7 -13 -11 -17 -31 -17 -91 l0 -77 44 0 c25 0 45 5 48 13 4 9
6 9 6 0 1 -8 15 -13 36 -13 26 0 33 3 29 15 -4 8 -13 15 -21 15 -8 0 -13 5
-11 12 8 23 23 18 36 -11 11 -24 18 -29 52 -29 44 -1 46 3 28 45 -6 15 -11 31
-10 35 1 5 -3 8 -9 8 -6 0 -9 7 -5 15 3 8 1 15 -4 15 -6 0 -10 -4 -10 -10 0
-5 -5 -10 -12 -10 -6 0 -4 7 6 18 24 28 5 80 -31 80 -14 0 -21 -3 -17 -7 5 -3
9 -15 8 -26 0 -11 8 -44 18 -74 10 -30 16 -57 13 -59 -8 -9 -14 2 -20 38 -3
19 -11 37 -16 41 -6 3 -13 29 -16 58 -4 42 -3 50 9 46 8 -3 20 0 25 7 12 14
-21 132 -46 161 -7 9 -11 24 -7 32 4 11 2 14 -6 9 -8 -5 -9 -2 -5 10 12 30 19
66 14 66 -2 0 -12 -15 -21 -34z m89 -296 c-3 -5 -11 -10 -16 -10 -6 0 -7 5 -4
10 3 6 11 10 16 10 6 0 7 -4 4 -10z m5 -30 c0 -5 -4 -10 -10 -10 -5 0 -10 5
-10 10 0 6 5 10 10 10 6 0 10 -4 10 -10z m-133 -122 c-3 -8 -6 -5 -6 6 -1 11
2 17 5 13 3 -3 4 -12 1 -19z"/>
<path d="M370 485 c0 -8 4 -15 8 -15 5 0 9 7 9 15 0 8 -4 15 -9 15 -4 0 -8 -7
-8 -15z"/>
<path d="M3870 496 c0 -2 8 -10 18 -17 15 -13 16 -12 3 4 -13 16 -21 21 -21
13z"/>
<path d="M185 470 c3 -5 11 -10 16 -10 6 0 7 5 4 10 -3 6 -11 10 -16 10 -6 0
-7 -4 -4 -10z"/>
<path d="M66 444 c-5 -14 -4 -15 9 -4 17 14 19 20 6 20 -5 0 -12 -7 -15 -16z"/>
<path d="M130 451 c0 -6 4 -13 10 -16 6 -3 7 1 4 9 -7 18 -14 21 -14 7z"/>
<path d="M204 438 c5 -29 18 -58 26 -58 4 0 3 16 -3 35 -10 33 -28 50 -23 23z"/>
<path d="M2600 439 c0 -5 5 -7 10 -4 6 3 10 8 10 11 0 2 -4 4 -10 4 -5 0 -10
-5 -10 -11z"/>
<path d="M3596 430 c3 -14 11 -32 16 -40 6 -10 7 -7 2 10 -3 14 -11 32 -16 40
-6 10 -7 7 -2 -10z"/>
<path d="M2583 422 c0 -12 5 -22 9 -22 11 0 10 12 -2 30 -7 12 -9 10 -7 -8z"/>
<path d="M3620 425 c0 -5 5 -17 10 -25 5 -8 10 -10 10 -5 0 6 -5 17 -10 25 -5
8 -10 11 -10 5z"/>
<path d="M0 403 c0 -10 7 -12 20 -8 23 7 28 -13 8 -33 -9 -9 -9 -12 1 -12 7 0
9 -5 6 -11 -4 -6 -14 -8 -24 -5 -13 5 -13 3 2 -8 12 -9 14 -16 7 -21 -5 -3 -8
-11 -5 -16 4 -5 0 -9 -7 -9 -8 -1 -6 -6 6 -15 20 -15 20 -15 0 -15 -13 -1 -6
-8 21 -22 22 -12 43 -21 48 -20 4 1 7 -2 7 -6 0 -5 7 -9 16 -9 15 0 15 1 0 12
-13 10 -14 14 -3 24 8 6 16 8 19 5 3 -2 8 1 11 9 6 15 -21 77 -38 90 -7 5 -6
9 2 15 16 10 -14 75 -30 65 -8 -5 -7 -8 1 -11 7 -2 12 -9 12 -15 -1 -7 -8 -3
-18 8 -20 23 -62 28 -62 8z m58 -44 c-2 -3 3 -13 9 -21 17 -20 4 -31 -16 -15
-14 11 -14 10 -2 -5 7 -10 17 -16 21 -13 4 2 18 -7 30 -20 l23 -25 -22 -24
c-22 -23 -25 -24 -47 -9 -13 8 -22 19 -19 23 3 5 1 11 -4 14 -8 5 -8 34 -1 44
2 1 3 6 4 11 0 5 4 12 8 16 4 4 4 14 1 22 -4 10 -2 14 6 12 7 -3 11 -7 9 -10z"/>
<path d="M55 275 c17 -12 34 -21 39 -18 5 4 6 1 2 -6 -5 -8 -12 -9 -20 -2 -6
5 -17 7 -23 3 -9 -6 -7 -11 6 -19 15 -10 22 -8 37 8 20 23 16 28 -33 45 l-37
13 29 -24z"/>
<path d="M179 401 c7 -11 17 -21 24 -21 8 0 8 3 -1 9 -8 4 -13 12 -12 17 1 5
-4 10 -10 12 -9 3 -9 -1 -1 -17z"/>
<path d="M3897 400 c-9 -11 -12 -20 -7 -20 6 0 13 7 17 16 3 8 12 13 20 10 8
-3 11 -1 8 4 -9 15 -19 12 -38 -10z"/>
<path d="M3580 405 c0 -5 5 -17 10 -25 5 -8 10 -10 10 -5 0 6 -5 17 -10 25 -5
8 -10 11 -10 5z"/>
<path d="M160 370 c6 -11 8 -20 5 -20 -3 0 -1 -9 5 -20 6 -11 16 -20 23 -20 8
0 8 3 -1 9 -8 4 -13 11 -13 15 3 15 -12 56 -20 56 -6 0 -5 -9 1 -20z"/>
<path d="M2590 380 c0 -5 5 -10 11 -10 5 0 7 5 4 10 -3 6 -8 10 -11 10 -2 0
-4 -4 -4 -10z"/>
<path d="M3660 380 c0 -5 5 -10 11 -10 5 0 7 5 4 10 -3 6 -8 10 -11 10 -2 0
-4 -4 -4 -10z"/>
<path d="M3912 373 c-9 -9 -9 -13 -2 -13 6 0 9 -8 6 -18 -4 -12 4 -28 26 -48
18 -16 25 -20 15 -8 -21 26 -21 28 1 50 16 17 16 17 0 11 -10 -3 -20 -2 -23 3
-3 4 -1 10 4 12 5 1 4 8 -3 14 -8 8 -15 7 -24 -3z m28 -43 c0 -5 -4 -10 -10
-10 -5 0 -10 5 -10 10 0 6 5 10 10 10 6 0 10 -4 10 -10z"/>
<path d="M3560 370 c0 -5 5 -10 11 -10 5 0 7 5 4 10 -3 6 -8 10 -11 10 -2 0
-4 -4 -4 -10z"/>
<path d="M2521 340 c0 -14 6 -38 14 -55 l14 -30 -4 32 c-3 17 -9 42 -14 55
l-10 23 0 -25z"/>
<path d="M3600 350 c0 -23 23 -90 31 -90 4 0 1 21 -8 48 -17 52 -23 62 -23 42z"/>
<path d="M3670 350 c0 -5 5 -10 11 -10 5 0 7 5 4 10 -3 6 -8 10 -11 10 -2 0
-4 -4 -4 -10z"/>
<path d="M2575 340 c3 -5 8 -10 11 -10 2 0 4 5 4 10 0 6 -5 10 -11 10 -5 0 -7
-4 -4 -10z"/>
<path d="M3630 328 c0 -9 5 -29 10 -44 8 -19 8 -29 0 -34 -8 -5 -7 -17 4 -41
l15 -34 -6 39 c-4 28 -3 37 6 32 14 -9 14 -10 -9 49 -10 28 -19 42 -20 33z"/>
<path d="M2557 290 c3 -11 9 -20 13 -20 5 0 6 9 3 20 -3 11 -9 20 -13 20 -5 0
-6 -9 -3 -20z"/>
<path d="M196 263 c9 -20 18 -46 20 -57 8 -44 36 -116 45 -116 5 0 0 24 -11
53 -29 75 -24 94 5 22 14 -33 25 -61 25 -62 0 -2 5 -3 11 -3 6 0 2 15 -10 35
-11 19 -23 50 -26 69 -5 22 -12 33 -20 30 -11 -5 -31 38 -27 59 1 4 -5 7 -12
7 -13 0 -13 -5 0 -37z"/>
<path d="M3910 296 c0 -2 8 -10 18 -17 15 -13 16 -12 3 4 -13 16 -21 21 -21
13z"/>
<path d="M3670 285 c0 -5 5 -17 10 -25 5 -8 10 -10 10 -5 0 6 -5 17 -10 25 -5
8 -10 11 -10 5z"/>
<path d="M3583 225 c6 -19 14 -35 18 -35 4 0 2 16 -4 35 -6 19 -14 35 -18 35
-4 0 -2 -16 4 -35z"/>
<path d="M3925 234 c0 -13 6 -28 13 -34 9 -7 9 -7 2 2 -17 21 -11 32 8 15 17
-15 18 -15 17 11 0 20 -5 27 -20 28 -16 1 -21 -5 -20 -22z m35 6 c0 -5 -2 -10
-4 -10 -3 0 -8 5 -11 10 -3 6 -1 10 4 10 6 0 11 -4 11 -10z"/>
<path d="M2605 230 c-3 -5 -1 -10 4 -10 6 0 11 5 11 10 0 6 -2 10 -4 10 -3 0
-8 -4 -11 -10z"/>
<path d="M3667 210 c3 -11 10 -23 16 -27 7 -4 8 0 4 11 -4 10 -7 22 -7 27 0 5
-4 9 -9 9 -5 0 -7 -9 -4 -20z"/>
<path d="M2550 210 c0 -5 5 -10 10 -10 6 0 10 5 10 10 0 6 -4 10 -10 10 -5 0
-10 -4 -10 -10z"/>
<path d="M3621 205 c0 -11 6 -31 14 -45 18 -31 18 -16 0 30 -9 23 -14 28 -14
15z"/>
<path d="M44 196 c11 -9 24 -16 30 -16 12 0 7 5 -24 19 -24 11 -24 11 -6 -3z"/>
<path d="M480 195 c0 -8 5 -15 10 -15 6 0 10 7 10 15 0 8 -4 15 -10 15 -5 0
-10 -7 -10 -15z"/>
<path d="M2560 179 c0 -5 5 -7 10 -4 6 3 10 8 10 11 0 2 -4 4 -10 4 -5 0 -10
-5 -10 -11z"/>
<path d="M3930 170 c6 -11 13 -20 16 -20 2 0 0 9 -6 20 -6 11 -13 20 -16 20
-2 0 0 -9 6 -20z"/>
<path d="M3600 176 c0 -1 5 -17 11 -34 7 -21 17 -30 30 -29 10 1 19 5 19 10 0
5 -6 7 -14 4 -10 -4 -18 4 -25 24 -8 24 -21 39 -21 25z"/>
<path d="M3660 158 c0 -11 12 -10 30 2 12 7 10 9 -8 7 -12 0 -22 -5 -22 -9z"/>
<path d="M2490 130 c0 -5 5 -10 10 -10 6 0 10 5 10 10 0 6 -4 10 -10 10 -5 0
-10 -4 -10 -10z"/>
<path d="M3670 130 c0 -5 5 -10 11 -10 5 0 7 5 4 10 -3 6 -8 10 -11 10 -2 0
-4 -4 -4 -10z"/>
<path d="M3914 112 c0 -10 6 -19 13 -19 8 0 9 6 2 19 -5 10 -11 18 -12 18 -2
0 -3 -8 -3 -18z"/>
<path d="M2500 100 c0 -5 5 -10 10 -10 6 0 10 5 10 10 0 6 -4 10 -10 10 -5 0
-10 -4 -10 -10z"/>
<path d="M3570 100 c0 -5 5 -10 11 -10 5 0 7 5 4 10 -3 6 -8 10 -11 10 -2 0
-4 -4 -4 -10z"/>
<path d="M3680 100 c0 -5 5 -10 11 -10 5 0 7 5 4 10 -3 6 -8 10 -11 10 -2 0
-4 -4 -4 -10z"/>
<path d="M2298 92 c-10 -2 -18 -8 -18 -13 0 -11 11 -11 30 1 18 11 11 18 -12
12z"/>
<path d="M2390 90 c0 -5 5 -10 11 -10 5 0 7 5 4 10 -3 6 -8 10 -11 10 -2 0 -4
-4 -4 -10z"/>
<path d="M2475 90 c3 -5 8 -10 11 -10 2 0 4 5 4 10 0 6 -5 10 -11 10 -5 0 -7
-4 -4 -10z"/>
<path d="M296 63 c8 -32 12 -39 19 -31 9 8 -6 58 -16 58 -5 0 -6 -12 -3 -27z"/>
<path d="M260 65 c0 -8 4 -15 10 -15 5 0 7 -7 4 -15 -4 -8 -1 -15 5 -15 12 0
13 6 5 38 -7 25 -24 30 -24 7z"/>
<path d="M2245 69 c-7 -10 26 -41 35 -33 2 3 -2 9 -9 13 -7 5 -10 14 -7 20 4
6 3 11 -3 11 -5 0 -13 -5 -16 -11z"/>
<path d="M2420 70 c0 -5 5 -10 10 -10 6 0 10 5 10 10 0 6 -4 10 -10 10 -5 0
-10 -4 -10 -10z"/>
<path d="M2510 70 c0 -5 5 -10 11 -10 5 0 7 5 4 10 -3 6 -8 10 -11 10 -2 0 -4
-4 -4 -10z"/>
<path d="M3690 70 c0 -5 5 -10 11 -10 5 0 7 5 4 10 -3 6 -8 10 -11 10 -2 0 -4
-4 -4 -10z"/>
<path d="M2315 60 c-3 -5 -1 -10 4 -10 6 0 11 5 11 10 0 6 -2 10 -4 10 -3 0
-8 -4 -11 -10z"/>
<path d="M2480 60 c0 -5 5 -10 10 -10 6 0 10 5 10 10 0 6 -4 10 -10 10 -5 0
-10 -4 -10 -10z"/>
<path d="M3555 60 c3 -5 8 -10 11 -10 2 0 4 5 4 10 0 6 -5 10 -11 10 -5 0 -7
-4 -4 -10z"/>
<path d="M2370 56 c0 -14 21 -58 26 -54 8 8 -7 58 -17 58 -5 0 -9 -2 -9 -4z"/>
<path d="M3645 50 c3 -5 8 -10 11 -10 2 0 4 5 4 10 0 6 -5 10 -11 10 -5 0 -7
-4 -4 -10z"/>
<path d="M2350 38 c0 -7 5 -20 10 -28 8 -12 10 -11 10 7 0 12 -4 25 -10 28 -5
3 -10 0 -10 -7z"/>
<path d="M2430 40 c0 -5 5 -10 10 -10 6 0 10 5 10 10 0 6 -4 10 -10 10 -5 0
-10 -4 -10 -10z"/>
<path d="M3590 40 c0 -5 5 -10 11 -10 5 0 7 5 4 10 -3 6 -8 10 -11 10 -2 0 -4
-4 -4 -10z"/>
<path d="M2324 24 c3 -9 6 -18 6 -20 0 -2 4 -4 9 -4 5 0 7 9 4 20 -3 11 -10
20 -15 20 -6 0 -7 -7 -4 -16z"/>
<path d="M2490 30 c0 -5 5 -10 10 -10 6 0 10 5 10 10 0 6 -4 10 -10 10 -5 0
-10 -4 -10 -10z"/>
<path d="M3569 27 c6 -8 8 -17 4 -20 -3 -4 -1 -7 5 -7 14 0 14 2 6 24 -3 9
-11 16 -16 16 -7 0 -6 -5 1 -13z"/>
<path d="M2247 16 c-4 -9 2 -13 19 -13 27 0 32 12 8 21 -21 8 -21 8 -27 -8z"/>
<path d="M3515 20 c3 -5 8 -10 11 -10 2 0 4 5 4 10 0 6 -5 10 -11 10 -5 0 -7
-4 -4 -10z"/>
<path d="M3656 15 c8 -19 14 -19 14 0 0 8 -4 15 -10 15 -5 0 -7 -7 -4 -15z"/>
<path d="M3835 19 c-4 -6 -5 -12 -2 -15 2 -3 7 2 10 11 7 17 1 20 -8 4z"/>
<path d="M2440 10 c0 -5 5 -10 10 -10 6 0 10 5 10 10 0 6 -4 10 -10 10 -5 0
-10 -4 -10 -10z"/>
<path d="M3768 13 c7 -3 16 -2 19 1 4 3 -2 6 -13 5 -11 0 -14 -3 -6 -6z"/>
</g>
</svg>
